<?xml version="1.0" encoding="UTF-8" standalone="no"?>
<!-- Created with Inkscape (http://www.inkscape.org/) -->

<svg
   xmlns:dc="http://purl.org/dc/elements/1.1/"
   xmlns:cc="http://creativecommons.org/ns#"
   xmlns:rdf="http://www.w3.org/1999/02/22-rdf-syntax-ns#"
   xmlns:svg="http://www.w3.org/2000/svg"
   xmlns="http://www.w3.org/2000/svg"
   xmlns:sodipodi="http://sodipodi.sourceforge.net/DTD/sodipodi-0.dtd"
   xmlns:inkscape="http://www.inkscape.org/namespaces/inkscape"
   id="svg2"
   version="1.1"
   inkscape:version="0.48.5 r10040"
   width="761.25"
   height="297.5"
   xml:space="preserve"
   sodipodi:docname="exp-ptb-beamlines.svg"><metadata
     id="metadata8"><rdf:RDF><cc:Work
         rdf:about=""><dc:format>image/svg+xml</dc:format><dc:type
           rdf:resource="http://purl.org/dc/dcmitype/StillImage" /><dc:title></dc:title></cc:Work></rdf:RDF></metadata><defs
     id="defs6"><clipPath
       clipPathUnits="userSpaceOnUse"
       id="clipPath18"><path
         d="M 0,2380 0,0 l 6090,0 0,2380 -6090,0 z m 5886.91,-1240.93 51.02,-12.6 8.82,36.53 -51.02,12.6 0,0 32.76,-27.71 -41.58,-8.82 z"
         clip-rule="evenodd"
         id="path20" /></clipPath><clipPath
       clipPathUnits="userSpaceOnUse"
       id="clipPath182"><path
         d="M 0,2380 0,0 l 6090,0 0,2380 -6090,0 z m 2624.66,-1964.059 43.46,-84.406 33.39,17.637 -43.46,84.406 0,0 18.26,-76.219 -51.65,58.582 z"
         clip-rule="evenodd"
         id="path184" /></clipPath></defs><sodipodi:namedview
     pagecolor="#ffffff"
     bordercolor="#666666"
     borderopacity="1"
     objecttolerance="10"
     gridtolerance="10"
     guidetolerance="10"
     inkscape:pageopacity="0"
     inkscape:pageshadow="2"
     inkscape:window-width="1920"
     inkscape:window-height="1145"
     id="namedview4"
     showgrid="false"
     inkscape:zoom="2.4696223"
     inkscape:cx="591.56915"
     inkscape:cy="130.17389"
     inkscape:window-x="-2"
     inkscape:window-y="-3"
     inkscape:window-maximized="1"
     inkscape:current-layer="g10" /><g
     id="g10"
     inkscape:groupmode="layer"
     inkscape:label="exp-ptb-beamlines"
     transform="matrix(1.25,0,0,-1.25,0,297.5)"><g
       id="g14"
       transform="scale(0.1,0.1)"><g
         clip-path="url(#clipPath18)"
         id="g16"><path
           inkscape:connector-curvature="0"
           id="path22"
           style="fill:none;stroke:#000000;stroke-width:4.72424984;stroke-linecap:butt;stroke-linejoin:miter;stroke-miterlimit:10;stroke-opacity:1;stroke-dasharray:37.794;stroke-dashoffset:0"
           d="M 1000.15,2367.37 5933.53,1146.62" /></g></g><path
       inkscape:connector-curvature="0"
       id="path24"
       style="fill:#000000;fill-opacity:1;fill-rule:evenodd;stroke:none"
       d="m 588.691,113.907 4.158,0.882 -3.276,2.771 -0.882,-3.653" /><path
       inkscape:connector-curvature="0"
       id="path26"
       style="fill:none;stroke:#000000;stroke-width:0.47242498;stroke-linecap:butt;stroke-linejoin:miter;stroke-miterlimit:10;stroke-opacity:1;stroke-dasharray:none"
       d="m 588.691,113.907 4.158,0.882 -3.276,2.771 -0.882,-3.653 z" /><path
       inkscape:connector-curvature="0"
       id="path28"
       style="fill:#ffffff;fill-opacity:1;fill-rule:evenodd;stroke:none"
       d="m 204.641,220.99 -51.462,-7.559 237.22,-58.203 -17.889,24.251" /><path
       inkscape:connector-curvature="0"
       id="path30"
       style="fill:none;stroke:#ffffff;stroke-width:0.47242498;stroke-linecap:butt;stroke-linejoin:miter;stroke-miterlimit:10;stroke-opacity:1;stroke-dasharray:none"
       d="m 204.641,220.99 -51.462,-7.559 237.22,-58.203 -17.889,24.251 -167.869,41.511 z" /><path
       inkscape:connector-curvature="0"
       id="path32"
       style="fill:#c3e7ff;fill-opacity:1;fill-rule:evenodd;stroke:none"
       d="m 157.777,203.73 -0.189,1.701 -0.189,1.323 -0.189,1.071 -0.063,0.693 -0.063,0.503 -0.063,0.252 0,0.127 0.126,0 0.189,0.062 0.315,0 0.504,0.063 0.693,0.127 0.881,0.125 1.134,0.127 1.386,0.189 1.701,0.188 1.952,0.252 2.205,0.252 2.52,0.315 2.771,0.378 3.213,0.378 1.637,0.189 1.701,0.189 1.827,0.252 1.89,0.252 2.015,0.252 2.142,0.252 2.141,0.252 2.331,0.252 2.331,0.315 2.456,0.315 2.52,0.315 2.583,0.315 2.645,0.315 2.709,0.315 2.708,0.314 2.772,0.379 2.772,0.314 2.708,0.315 2.772,0.378 2.708,0.315 2.709,0.315 2.645,0.315 2.583,0.315 2.52,0.315 2.456,0.315 2.331,0.252 2.331,0.315 2.204,0.252 2.079,0.252 2.015,0.252 1.89,0.252 1.827,0.189 1.701,0.252 1.637,0.188 3.213,0.379 2.834,0.314 2.457,0.316 2.268,0.315 1.952,0.189 1.638,0.188 1.386,0.189 1.134,0.126 0.945,0.126 0.692,0.063 0.441,0.063 0.315,0.063 0.378,0 0,0.063 0.063,0 0.126,-0.063 0.126,-0.063 0.315,-0.063 0.441,-0.126 0.63,-0.252 0.819,-0.252 1.008,-0.314 1.259,-0.379 1.449,-0.503 1.701,-0.504 1.89,-0.63 2.204,-0.756 1.197,-0.378 1.323,-0.441 1.385,-0.441 1.449,-0.441 1.575,-0.504 1.638,-0.567 1.701,-0.567 1.763,-0.566 1.89,-0.63 1.89,-0.567 1.952,-0.693 2.016,-0.63 2.016,-0.63 2.016,-0.693 2.078,-0.693 2.016,-0.63 2.015,-0.63 1.953,-0.693 1.89,-0.629 1.89,-0.567 1.763,-0.567 1.701,-0.567 1.638,-0.567 1.575,-0.504 1.448,-0.441 1.386,-0.504 1.26,-0.378 1.26,-0.44 2.141,-0.693 1.953,-0.63 1.638,-0.567 1.448,-0.441 1.26,-0.441 1.008,-0.315 0.756,-0.252 0.63,-0.252 0.441,-0.126 0.315,-0.126 0.126,-0.063 0.189,0 0.063,-0.126 0.189,-0.189 0.378,-0.441 0.567,-0.63 0.755,-0.881 0.441,-0.504 0.504,-0.568 0.504,-0.629 0.63,-0.693 0.693,-0.756 0.693,-0.882 0.756,-0.882 0.819,-0.945 0.756,-0.945 0.818,-0.945 0.819,-0.881 0.756,-0.945 0.756,-0.882 0.693,-0.819 0.693,-0.882 0.756,-0.882 0.693,-0.818 0.756,-0.945 0.818,-0.882 0.756,-0.945 0.756,-0.945 0.756,-0.882 0.756,-0.882 0.693,-0.881 0.693,-0.819 0.63,-0.756 0.629,-0.756 0.567,-0.693 0.63,-0.693 0.567,-0.756 0.63,-0.693 0.567,-0.756 0.693,-0.818 0.63,-0.819 0.756,-0.882 0.693,-0.882 0.692,-0.882 0.756,-0.945 0.693,-0.945 0.756,-1.007 0.693,-1.008 0.756,-1.008 0.63,-0.882 0.63,-0.882 0.629,-0.945 0.756,-1.007 0.693,-1.071 0.756,-1.134 0.819,-1.134 0.756,-1.197 0.819,-1.26 0.819,-1.196 0.819,-1.26 0.819,-1.197 0.755,-1.197 0.693,-1.134 0.756,-1.07 0.63,-1.071 0.693,-1.071 0.63,-0.945 0.63,-1.134 0.693,-1.07 0.63,-1.072 0.692,-1.07 0.63,-1.134 0.693,-1.071 0.63,-1.071 0.63,-1.071 0.567,-1.07 0.63,-1.008 0.504,-1.008 0.567,-0.882 0.504,-0.882 0.441,-0.882 0.441,-0.818 0.44,-0.756 0.567,-1.008 0.567,-1.071 0.567,-1.008 0.567,-1.071 0.567,-1.008 0.504,-1.007 0.504,-0.882 0.504,-0.882 0.377,-0.756 0.379,-0.693 0.314,-0.567 0.252,-0.504 0.441,-0.819 0.315,-0.567 0.189,-0.441 0.126,-0.189 0.063,-0.125 0,-0.063 0.126,-0.064 0.189,-0.062 0.315,-0.063 0.441,-0.127 0.63,-0.188 0.819,-0.189 1.071,-0.315 1.323,-0.315 1.574,-0.441 1.827,-0.441 2.016,-0.567 2.393,-0.567 2.646,-0.693 2.96,-0.756 1.512,-0.378 1.638,-0.441 1.7,-0.441 1.764,-0.44 1.89,-0.504 1.953,-0.504 2.078,-0.504 2.142,-0.567 2.205,-0.567 2.267,-0.567 2.394,-0.63 2.394,-0.63 2.456,-0.63 2.52,-0.63 2.582,-0.629 2.583,-0.693 2.583,-0.63 2.582,-0.6929 2.52,-0.6301 2.582,-0.693 2.52,-0.6296 2.456,-0.6301 2.394,-0.6297 2.394,-0.6301 2.268,-0.5668 2.204,-0.5668 2.142,-0.5672 2.078,-0.5039 1.953,-0.5039 1.89,-0.5039 1.826,-0.441 1.701,-0.4406 1.575,-0.3782 1.512,-0.441 2.96,-0.7558 2.646,-0.6297 2.393,-0.6301 2.079,-0.5039 1.827,-0.5039 1.512,-0.3777 1.322,-0.3153 1.071,-0.3148 0.882,-0.1891 0.63,-0.1887 0.441,-0.1261 0.315,-0.0629 0.189,-0.0629 0.441,0 0.378,-0.0633 3.338,0 1.386,-0.0629 1.701,0 1.889,-0.0629 2.268,0 2.52,-0.0632 2.897,0 1.575,-0.0629 3.527,0 1.89,-0.0629 1.953,0 2.078,-0.0629 2.142,0 2.205,-0.0633 4.598,0 2.33,-0.0629 2.394,0 2.331,-0.0629 2.331,0 2.33,-0.0629 2.268,0 2.204,-0.0633 2.142,0 2.079,-0.0628 2.016,0 1.889,-0.0629 3.464,0 1.638,-0.0629 2.898,0 2.52,-0.0633 2.204,0 1.953,-0.0629 4.283,0 0.945,-0.0629 2.016,0 0,-5.4801 0.063,-1.7007 0,-12.9129 0.062,-1.827 0,-12.5976 0.064,-2.3309 0,-11.716 0.063,-2.2676 0,-13.8578 0.063,-1.575 0,-16.37736 -0.063,-0.25195 0,-0.12578 -0.063,0.06289 -22.236,0 -1.701,-0.06289 -24.062,0 0,0.69258 -0.063,0.63008 0,12.53513 0.063,1.3227 0,9.3855 0.063,0.8188 0,4.9761 -0.063,0.0629 -2.519,0 -1.071,0.0633 -43.652,0 -2.646,-0.0633 -54.738,0 -0.063,-0.0629 -0.063,0.1262 -0.126,0.252 -0.189,0.6297 -0.315,0.882 -0.252,0.6297 -0.252,0.7558 -0.252,0.8192 -0.378,0.9449 -0.315,0.9445 -0.315,1.0078 -0.378,0.8821 -0.252,0.882 -0.252,0.6926 -0.252,0.6301 -0.315,0.9449 -0.252,0.6297 -0.125,0.3781 -0.064,0.1258 -0.062,0 -0.063,-0.0629 -0.189,0 -0.315,-0.1258 -0.441,-0.1262 -0.63,-0.189 -0.819,-0.252 -1.008,-0.3148 -1.26,-0.3781 -1.449,-0.4407 -1.637,-0.5039 -1.953,-0.5672 -2.204,-0.6925 -1.197,-0.3782 -1.26,-0.3777 -1.386,-0.441 -1.512,-0.441 -1.511,-0.5039 -1.638,-0.5039 -1.701,-0.504 -1.827,-0.5668 -1.826,-0.5671 -1.953,-0.5668 -1.953,-0.5668 -1.952,-0.6301 -2.079,-0.6297 -2.016,-0.6301 -2.016,-0.6297 -2.015,-0.63 -2.016,-0.5668 -1.953,-0.6301 -1.952,-0.5668 -1.827,-0.5668 -1.764,-0.5672 -1.763,-0.5039 -1.575,-0.5039 -1.575,-0.5039 -1.449,-0.441 -1.385,-0.4407 -1.323,-0.3781 -1.197,-0.3777 -2.204,-0.6301 -1.89,-0.6301 -1.701,-0.5039 -1.449,-0.4406 -1.197,-0.3781 -1.008,-0.3149 -0.818,-0.2519 -0.63,-0.1262 -0.441,-0.1887 -0.252,-0.0633 -0.189,-0.0628 -0.126,0 0,-0.0629 0,0.0629 -0.063,0 -0.252,0.1261 -0.378,0.1887 -0.63,0.3152 -0.945,0.4407 -1.197,0.63 -1.511,0.7559 -0.819,0.441 -0.882,0.441 -1.008,0.5039 -1.008,0.5668 -1.133,0.5668 -1.26,0.6301 -1.26,0.693 -1.26,0.6926 -1.323,0.63 -1.322,0.693 -1.323,0.6926 -1.26,0.6301 -1.197,0.63 -1.197,0.6297 -1.007,0.5039 -1.009,0.5039 -0.881,0.5039 -0.819,0.3782 -1.512,0.8187 -1.197,0.5668 -0.882,0.5039 -0.693,0.3153 -0.377,0.1886 -0.189,0.0633 -0.063,0.0629 -0.064,0 -0.062,0.0629 -0.126,0.0629 -0.189,0.189 -0.378,0.252 -0.567,0.441 -0.819,0.5668 -0.945,0.693 -1.26,0.9449 -1.448,1.0707 -1.764,1.2598 -2.016,1.4488 -1.008,0.7559 -1.134,0.8187 -1.196,0.882 -1.26,0.945 -1.386,0.9449 -1.386,1.0707 -1.511,1.0707 -1.575,1.134 -1.638,1.1968 -1.638,1.1969 -1.701,1.2598 -1.763,1.2598 -1.701,1.2597 -1.764,1.3227 -1.763,1.2597 -1.701,1.1969 -1.638,1.2598 -1.638,1.134 -1.574,1.1968 -1.512,1.0707 -1.386,1.0079 -1.386,1.0078 -1.26,0.9449 -1.196,0.8816 -1.134,0.7563 -1.008,0.7558 -2.015,1.5118 -1.701,1.2597 -1.512,1.0078 -1.197,0.945 -1.008,0.6925 -0.755,0.5672 -0.567,0.3778 -0.378,0.2519 -0.252,0.1891 -0.127,0.0629 0,0.0632 -0.062,-0.0632 -0.504,0 -0.441,0.0632 -0.504,0.0629 -0.693,0.0629 -0.756,0.1262 -0.693,0.0629 -0.693,0.1258 -0.504,0.0632 -0.441,0.0629 -0.629,0 -0.063,0.0629 -0.063,0.0629 -0.189,0.0633 -0.189,0.1887 -0.378,0.2519 -0.504,0.3782 -0.693,0.441 -0.819,0.6297 -1.071,0.7558 -1.196,0.882 -1.449,1.0079 -1.638,1.1968 -1.827,1.3227 -2.079,1.5117 -2.33,1.7008 -1.26,0.9449 -1.386,0.9449 -1.385,1.0707 -1.512,1.0707 -1.575,1.134 -1.701,1.2598 -1.7,1.2598 -1.827,1.3226 -1.89,1.3232 -1.952,1.449 -1.953,1.448 -2.079,1.449 -2.079,1.512 -2.078,1.575 -2.142,1.511 -2.142,1.575 -2.141,1.575 -2.142,1.512 -2.142,1.574 -2.078,1.512 -2.016,1.512 -2.015,1.449 -1.953,1.386 -1.89,1.385 -1.764,1.323 -1.763,1.26 -1.638,1.197 -1.575,1.133 -1.512,1.134 -1.448,1.008 -1.323,1.008 -1.26,0.882 -2.331,1.7 -2.078,1.512 -1.827,1.386 -1.638,1.134 -1.386,1.071 -1.196,0.882 -1.008,0.756 -0.882,0.629 -0.63,0.504 -0.504,0.378 -0.315,0.252 -0.252,0.189 -0.126,0.126 -0.063,0.063 -0.063,0 0,0.252 0.126,0.378 0.126,0.693 0.252,1.071 0.378,1.449 0.189,0.818 0.252,0.882 0.252,0.945 0.252,1.071 0.315,1.197 0.315,1.26 0.378,1.197 0.315,1.259 0.315,1.26 0.315,1.134 0.252,1.134 0.252,0.945 0.252,0.881 0.189,0.819 0.377,1.449 0.252,1.008 0.126,0.693 0.063,0.378 0.063,0.189 -0.063,0.063 -0.063,0 -0.126,0.063 -0.252,0.062 -0.377,0.127 -0.63,0.252 -0.756,0.251 -1.071,0.315 -1.197,0.378 -1.512,0.441 -1.007,0.315 -1.071,0.315 -1.134,0.378 -1.323,0.378 -1.323,0.441 -1.512,0.441 -1.511,0.441 -1.575,0.504 -1.575,0.441 -1.575,0.504 -1.574,0.503 -1.575,0.441 -1.449,0.441 -1.386,0.378 -1.259,0.441 -1.197,0.315 -1.071,0.315 -0.945,0.315 -1.511,0.441 -1.26,0.378 -1.071,0.315 -0.819,0.189 -0.567,0.189 -0.441,0.126 -0.252,0.063 -0.189,0 0.063,0 0.063,0.063 -0.063,0.252 0,0.441 -0.126,0.693 -0.126,1.008 -0.126,1.385 -0.252,1.638 -0.126,0.882 -0.126,1.008 -0.126,1.071 -0.189,1.196 -0.189,1.26 -0.189,1.323 -0.189,1.386 -0.189,1.449 -0.188,1.448 -0.19,1.449 -0.251,1.449 -0.19,1.386 -0.189,1.385 -0.125,1.26 -0.189,1.134 -0.126,1.071 -0.189,1.007" /><path
       inkscape:connector-curvature="0"
       id="path34"
       style="fill:none;stroke:#000000;stroke-width:1.88969994;stroke-linecap:butt;stroke-linejoin:bevel;stroke-miterlimit:10;stroke-opacity:1;stroke-dasharray:none"
       d="m 157.777,203.73 -0.189,1.701 -0.189,1.323 -0.189,1.071 -0.063,0.693 -0.063,0.503 -0.063,0.252 0,0.127 0.126,0 0.189,0.062 0.315,0 0.504,0.063 0.693,0.127 0.881,0.125 1.134,0.127 1.386,0.189 1.701,0.188 1.952,0.252 2.205,0.252 2.52,0.315 2.771,0.378 3.213,0.378 1.637,0.189 1.701,0.189 1.827,0.252 1.89,0.252 2.015,0.252 2.142,0.252 2.141,0.252 2.331,0.252 2.331,0.315 2.456,0.315 2.52,0.315 2.583,0.315 2.645,0.315 2.709,0.315 2.708,0.314 2.772,0.379 2.772,0.314 2.708,0.315 2.772,0.378 2.708,0.315 2.709,0.315 2.645,0.315 2.583,0.315 2.52,0.315 2.456,0.315 2.331,0.252 2.331,0.315 2.204,0.252 2.079,0.252 2.015,0.252 1.89,0.252 1.827,0.189 1.701,0.252 1.637,0.188 3.213,0.379 2.834,0.314 2.457,0.316 2.268,0.315 1.952,0.189 1.638,0.188 1.386,0.189 1.134,0.126 0.945,0.126 0.692,0.063 0.441,0.063 0.315,0.063 0.378,0 0,0.063 0.063,0 0.126,-0.063 0.126,-0.063 0.315,-0.063 0.441,-0.126 0.63,-0.252 0.819,-0.252 1.008,-0.314 1.259,-0.379 1.449,-0.503 1.701,-0.504 1.89,-0.63 2.204,-0.756 1.197,-0.378 1.323,-0.441 1.385,-0.441 1.449,-0.441 1.575,-0.504 1.638,-0.567 1.701,-0.567 1.763,-0.566 1.89,-0.63 1.89,-0.567 1.952,-0.693 2.016,-0.63 2.016,-0.63 2.016,-0.693 2.078,-0.693 2.016,-0.63 2.015,-0.63 1.953,-0.693 1.89,-0.629 1.89,-0.567 1.763,-0.567 1.701,-0.567 1.638,-0.567 1.575,-0.504 1.448,-0.441 1.386,-0.504 1.26,-0.378 1.26,-0.44 2.141,-0.693 1.953,-0.63 1.638,-0.567 1.448,-0.441 1.26,-0.441 1.008,-0.315 0.756,-0.252 0.63,-0.252 0.441,-0.126 0.315,-0.126 0.126,-0.063 0.189,0 0.063,-0.126 0.189,-0.189 0.378,-0.441 0.567,-0.63 0.755,-0.881 0.441,-0.504 0.504,-0.568 0.504,-0.629 0.63,-0.693 0.693,-0.756 0.693,-0.882 0.756,-0.882 0.819,-0.945 0.756,-0.945 0.818,-0.945 0.819,-0.881 0.756,-0.945 0.756,-0.882 0.693,-0.819 0.693,-0.882 0.756,-0.882 0.693,-0.818 0.756,-0.945 0.818,-0.882 0.756,-0.945 0.756,-0.945 0.756,-0.882 0.756,-0.882 0.693,-0.881 0.693,-0.819 0.63,-0.756 0.629,-0.756 0.567,-0.693 0.63,-0.693 0.567,-0.756 0.63,-0.693 0.567,-0.756 0.693,-0.818 0.63,-0.819 0.756,-0.882 0.693,-0.882 0.692,-0.882 0.756,-0.945 0.693,-0.945 0.756,-1.007 0.693,-1.008 0.756,-1.008 0.63,-0.882 0.63,-0.882 0.629,-0.945 0.756,-1.007 0.693,-1.071 0.756,-1.134 0.819,-1.134 0.756,-1.197 0.819,-1.26 0.819,-1.196 0.819,-1.26 0.819,-1.197 0.755,-1.197 0.693,-1.134 0.756,-1.07 0.63,-1.071 0.693,-1.071 0.63,-0.945 0.63,-1.134 0.693,-1.07 0.63,-1.072 0.692,-1.07 0.63,-1.134 0.693,-1.071 0.63,-1.071 0.63,-1.071 0.567,-1.07 0.63,-1.008 0.504,-1.008 0.567,-0.882 0.504,-0.882 0.441,-0.882 0.441,-0.818 0.44,-0.756 0.567,-1.008 0.567,-1.071 0.567,-1.008 0.567,-1.071 0.567,-1.008 0.504,-1.007 0.504,-0.882 0.504,-0.882 0.377,-0.756 0.379,-0.693 0.314,-0.567 0.252,-0.504 0.441,-0.819 0.315,-0.567 0.189,-0.441 0.126,-0.189 0.063,-0.125 0,-0.063 0.126,-0.064 0.189,-0.062 0.315,-0.063 0.441,-0.127 0.63,-0.188 0.819,-0.189 1.071,-0.315 1.323,-0.315 1.574,-0.441 1.827,-0.441 2.016,-0.567 2.393,-0.567 2.646,-0.693 2.96,-0.756 1.512,-0.378 1.638,-0.441 1.7,-0.441 1.764,-0.44 1.89,-0.504 1.953,-0.504 2.078,-0.504 2.142,-0.567 2.205,-0.567 2.267,-0.567 2.394,-0.63 2.394,-0.63 2.456,-0.63 2.52,-0.63 2.582,-0.629 2.583,-0.693 2.583,-0.63 2.582,-0.6929 2.52,-0.6301 2.582,-0.693 2.52,-0.6296 2.456,-0.6301 2.394,-0.6297 2.394,-0.6301 2.268,-0.5668 2.204,-0.5668 2.142,-0.5672 2.078,-0.5039 1.953,-0.5039 1.89,-0.5039 1.826,-0.441 1.701,-0.4406 1.575,-0.3782 1.512,-0.441 2.96,-0.7558 2.646,-0.6297 2.393,-0.6301 2.079,-0.5039 1.827,-0.5039 1.512,-0.3777 1.322,-0.3153 1.071,-0.3148 0.882,-0.1891 0.63,-0.1887 0.441,-0.1261 0.315,-0.0629 0.189,-0.0629 0.441,0 0.378,-0.0633 3.338,0 1.386,-0.0629 1.701,0 1.889,-0.0629 2.268,0 2.52,-0.0632 2.897,0 1.575,-0.0629 3.527,0 1.89,-0.0629 1.953,0 2.078,-0.0629 2.142,0 2.205,-0.0633 4.598,0 2.33,-0.0629 2.394,0 2.331,-0.0629 2.331,0 2.33,-0.0629 2.268,0 2.204,-0.0633 2.142,0 2.079,-0.0628 2.016,0 1.889,-0.0629 3.464,0 1.638,-0.0629 2.898,0 2.52,-0.0633 2.204,0 1.953,-0.0629 4.283,0 0.945,-0.0629 2.016,0 0,-5.4801 0.063,-1.7007 0,-12.9129 0.062,-1.827 0,-12.5976 0.064,-2.3309 0,-11.716 0.063,-2.2676 0,-13.8578 0.063,-1.575 0,-16.37736 -0.063,-0.25195 0,-0.12578 -0.063,0.06289 -22.236,0 -1.701,-0.06289 -24.062,0 0,0.69258 -0.063,0.63008 0,12.53513 0.063,1.3227 0,9.3855 0.063,0.8188 0,4.9761 -0.063,0.0629 -2.519,0 -1.071,0.0633 -43.652,0 -2.646,-0.0633 -54.738,0 -0.063,-0.0629 -0.063,0.1262 -0.126,0.252 -0.189,0.6297 -0.315,0.882 -0.252,0.6297 -0.252,0.7558 -0.252,0.8192 -0.378,0.9449 -0.315,0.9445 -0.315,1.0078 -0.378,0.8821 -0.252,0.882 -0.252,0.6926 -0.252,0.6301 -0.315,0.9449 -0.252,0.6297 -0.125,0.3781 -0.064,0.1258 -0.062,0 -0.063,-0.0629 -0.189,0 -0.315,-0.1258 -0.441,-0.1262 -0.63,-0.189 -0.819,-0.252 -1.008,-0.3148 -1.26,-0.3781 -1.449,-0.4407 -1.637,-0.5039 -1.953,-0.5672 -2.204,-0.6925 -1.197,-0.3782 -1.26,-0.3777 -1.386,-0.441 -1.512,-0.441 -1.511,-0.5039 -1.638,-0.5039 -1.701,-0.504 -1.827,-0.5668 -1.826,-0.5671 -1.953,-0.5668 -1.953,-0.5668 -1.952,-0.6301 -2.079,-0.6297 -2.016,-0.6301 -2.016,-0.6297 -2.015,-0.63 -2.016,-0.5668 -1.953,-0.6301 -1.952,-0.5668 -1.827,-0.5668 -1.764,-0.5672 -1.763,-0.5039 -1.575,-0.5039 -1.575,-0.5039 -1.449,-0.441 -1.385,-0.4407 -1.323,-0.3781 -1.197,-0.3777 -2.204,-0.6301 -1.89,-0.6301 -1.701,-0.5039 -1.449,-0.4406 -1.197,-0.3781 -1.008,-0.3149 -0.818,-0.2519 -0.63,-0.1262 -0.441,-0.1887 -0.252,-0.0633 -0.189,-0.0628 -0.126,0 0,-0.0629 0,0.0629 -0.063,0 -0.252,0.1261 -0.378,0.1887 -0.63,0.3152 -0.945,0.4407 -1.197,0.63 -1.511,0.7559 -0.819,0.441 -0.882,0.441 -1.008,0.5039 -1.008,0.5668 -1.133,0.5668 -1.26,0.6301 -1.26,0.693 -1.26,0.6926 -1.323,0.63 -1.322,0.693 -1.323,0.6926 -1.26,0.6301 -1.197,0.63 -1.197,0.6297 -1.007,0.5039 -1.009,0.5039 -0.881,0.5039 -0.819,0.3782 -1.512,0.8187 -1.197,0.5668 -0.882,0.5039 -0.693,0.3153 -0.377,0.1886 -0.189,0.0633 -0.063,0.0629 -0.064,0 -0.062,0.0629 -0.126,0.0629 -0.189,0.189 -0.378,0.252 -0.567,0.441 -0.819,0.5668 -0.945,0.693 -1.26,0.9449 -1.448,1.0707 -1.764,1.2598 -2.016,1.4488 -1.008,0.7559 -1.134,0.8187 -1.196,0.882 -1.26,0.945 -1.386,0.9449 -1.386,1.0707 -1.511,1.0707 -1.575,1.134 -1.638,1.1968 -1.638,1.1969 -1.701,1.2598 -1.763,1.2598 -1.701,1.2597 -1.764,1.3227 -1.763,1.2597 -1.701,1.1969 -1.638,1.2598 -1.638,1.134 -1.574,1.1968 -1.512,1.0707 -1.386,1.0079 -1.386,1.0078 -1.26,0.9449 -1.196,0.8816 -1.134,0.7563 -1.008,0.7558 -2.015,1.5118 -1.701,1.2597 -1.512,1.0078 -1.197,0.945 -1.008,0.6925 -0.755,0.5672 -0.567,0.3778 -0.378,0.2519 -0.252,0.1891 -0.127,0.0629 0,0.0632 -0.062,-0.0632 -0.504,0 -0.441,0.0632 -0.504,0.0629 -0.693,0.0629 -0.756,0.1262 -0.693,0.0629 -0.693,0.1258 -0.504,0.0632 -0.441,0.0629 -0.629,0 -0.063,0.0629 -0.063,0.0629 -0.189,0.0633 -0.189,0.1887 -0.378,0.2519 -0.504,0.3782 -0.693,0.441 -0.819,0.6297 -1.071,0.7558 -1.196,0.882 -1.449,1.0079 -1.638,1.1968 -1.827,1.3227 -2.079,1.5117 -2.33,1.7008 -1.26,0.9449 -1.386,0.9449 -1.385,1.0707 -1.512,1.0707 -1.575,1.134 -1.701,1.2598 -1.7,1.2598 -1.827,1.3226 -1.89,1.3232 -1.952,1.449 -1.953,1.448 -2.079,1.449 -2.079,1.512 -2.078,1.575 -2.142,1.511 -2.142,1.575 -2.141,1.575 -2.142,1.512 -2.142,1.574 -2.078,1.512 -2.016,1.512 -2.015,1.449 -1.953,1.386 -1.89,1.385 -1.764,1.323 -1.763,1.26 -1.638,1.197 -1.575,1.133 -1.512,1.134 -1.448,1.008 -1.323,1.008 -1.26,0.882 -2.331,1.7 -2.078,1.512 -1.827,1.386 -1.638,1.134 -1.386,1.071 -1.196,0.882 -1.008,0.756 -0.882,0.629 -0.63,0.504 -0.504,0.378 -0.315,0.252 -0.252,0.189 -0.126,0.126 -0.063,0.063 -0.063,0 0,0.252 0.126,0.378 0.126,0.693 0.252,1.071 0.378,1.449 0.189,0.818 0.252,0.882 0.252,0.945 0.252,1.071 0.315,1.197 0.315,1.26 0.378,1.197 0.315,1.259 0.315,1.26 0.315,1.134 0.252,1.134 0.252,0.945 0.252,0.881 0.189,0.819 0.377,1.449 0.252,1.008 0.126,0.693 0.063,0.378 0.063,0.189 -0.063,0.063 -0.063,0 -0.126,0.063 -0.252,0.062 -0.377,0.127 -0.63,0.252 -0.756,0.251 -1.071,0.315 -1.197,0.378 -1.512,0.441 -1.007,0.315 -1.071,0.315 -1.134,0.378 -1.323,0.378 -1.323,0.441 -1.512,0.441 -1.511,0.441 -1.575,0.504 -1.575,0.441 -1.575,0.504 -1.574,0.503 -1.575,0.441 -1.449,0.441 -1.386,0.378 -1.259,0.441 -1.197,0.315 -1.071,0.315 -0.945,0.315 -1.511,0.441 -1.26,0.378 -1.071,0.315 -0.819,0.189 -0.567,0.189 -0.441,0.126 -0.252,0.063 -0.189,0 0.063,0 0.063,0.063 -0.063,0.252 0,0.441 -0.126,0.693 -0.126,1.008 -0.126,1.385 -0.252,1.638 -0.126,0.882 -0.126,1.008 -0.126,1.071 -0.189,1.196 -0.189,1.26 -0.189,1.323 -0.189,1.386 -0.189,1.449 -0.188,1.448 -0.19,1.449 -0.251,1.449 -0.19,1.386 -0.189,1.385 -0.125,1.26 -0.189,1.134 -0.126,1.071 -0.189,1.007 -0.126,0.882 z" /><g
       id="g36"
       style="fill:#d10000;fill-opacity:1"
       transform="translate(-1.6,-1.6)"><text
         id="text38"
         transform="matrix(1,0,0,-1,66.2523,168.708)"
         style="fill:#d10000;fill-opacity:1"><tspan
           id="tspan40"
           sodipodi:role="line"
           style="font-size:13.99950027px;font-variant:normal;font-weight:normal;writing-mode:lr-tb;fill:#d10000;fill-opacity:1;fill-rule:nonzero;stroke:none;font-family:Helvetica;-inkscape-font-specification:Helvetica"
           x="0"
           y="0">{\fontfamily{fds}</tspan><tspan
           sodipodi:role="line"
           style="font-size:13.99950027px;font-variant:normal;font-weight:normal;writing-mode:lr-tb;fill:#d10000;fill-opacity:1;fill-rule:nonzero;stroke:none;font-family:Helvetica;-inkscape-font-specification:Helvetica"
           x="0"
           y="17.499374"
           id="tspan3706">\selectfont</tspan><tspan
           sodipodi:role="line"
           style="font-size:13.99950027px;font-variant:normal;font-weight:normal;writing-mode:lr-tb;fill:#d10000;fill-opacity:1;fill-rule:nonzero;stroke:none;font-family:Helvetica;-inkscape-font-specification:Helvetica"
           x="0"
           y="34.998749"
           id="tspan3708">\footnotesize</tspan><tspan
           sodipodi:role="line"
           style="font-size:13.99950027px;font-variant:normal;font-weight:normal;writing-mode:lr-tb;fill:#d10000;fill-opacity:1;fill-rule:nonzero;stroke:none;font-family:Helvetica;-inkscape-font-specification:Helvetica"
           x="0"
           y="52.498127"
           id="tspan3710">U49}</tspan></text>
</g><path
       inkscape:connector-curvature="0"
       id="path42"
       style="fill:none;stroke:#00008f;stroke-width:0.47242498;stroke-linecap:butt;stroke-linejoin:miter;stroke-miterlimit:10;stroke-opacity:1;stroke-dasharray:none"
       d="M 279.599,122.977 333.456,81.2777" /><path
       inkscape:connector-curvature="0"
       id="path44"
       style="fill:#ffffff;fill-opacity:1;fill-rule:evenodd;stroke:none"
       d="m 599.652,73.9082 -0.567,-1.4488 -1.197,0 -0.126,8.8816 1.89,0.1258 8.188,0.1262 -3.464,-5.3543" /><path
       inkscape:connector-curvature="0"
       id="path46"
       style="fill:#ffffff;fill-opacity:1;fill-rule:evenodd;stroke:none"
       d="m 599.652,73.4043 -1.764,0.9445 0,-8.5035 1.764,0 8.188,-0.1258 -3.464,5.3539" /><path
       inkscape:connector-curvature="0"
       id="path48"
       style="fill:#ffffff;fill-opacity:1;fill-rule:evenodd;stroke:none"
       d="m 608.027,65.4016 c 10e-4,0.0699 0.002,0.1406 0.002,0.2105 0,4.2543 -3.449,7.7039 -7.703,7.7039 -0.268,0 -0.536,-0.014 -0.802,-0.0418" /><path
       inkscape:connector-curvature="0"
       id="path50"
       style="fill:none;stroke:#000000;stroke-width:0.47242498;stroke-linecap:butt;stroke-linejoin:miter;stroke-miterlimit:10;stroke-opacity:1;stroke-dasharray:none"
       d="m 608.027,65.4016 c 10e-4,0.0699 0.002,0.1406 0.002,0.2105 0,4.2543 -3.449,7.7039 -7.703,7.7039 -0.268,0 -0.536,-0.014 -0.802,-0.0418" /><path
       inkscape:connector-curvature="0"
       id="path52"
       style="fill:#ffffff;fill-opacity:1;fill-rule:evenodd;stroke:none"
       d="m 608.028,81.5938 c -0.075,-4.3774 -3.646,-7.8872 -8.024,-7.8872 -0.159,0 -0.32,0.0051 -0.479,0.0141" /><path
       inkscape:connector-curvature="0"
       id="path54"
       style="fill:none;stroke:#000000;stroke-width:0.47242498;stroke-linecap:butt;stroke-linejoin:miter;stroke-miterlimit:10;stroke-opacity:1;stroke-dasharray:none"
       d="m 608.028,81.5938 c -0.075,-4.3774 -3.646,-7.8872 -8.024,-7.8872 -0.159,0 -0.32,0.0051 -0.479,0.0141" /><path
       inkscape:connector-curvature="0"
       id="path56"
       style="fill:none;stroke:#0000d1;stroke-width:0.47242498;stroke-linecap:butt;stroke-linejoin:miter;stroke-miterlimit:10;stroke-opacity:1;stroke-dasharray:none"
       d="m 348.132,132.615 c 0,-1.983 -1.607,-3.591 -3.59,-3.591 -1.983,0 -3.59,1.608 -3.59,3.591 0,1.983 1.607,3.59 3.59,3.59 1.983,0 3.59,-1.607 3.59,-3.59 z" /><path
       inkscape:connector-curvature="0"
       id="path58"
       style="fill:none;stroke:#000000;stroke-width:0.47242498;stroke-linecap:butt;stroke-linejoin:miter;stroke-miterlimit:10;stroke-opacity:1;stroke-dasharray:3.7794;stroke-dashoffset:0"
       d="m 17.8758,191.951 87.4302,8.441" /><path
       inkscape:connector-curvature="0"
       id="path60"
       style="fill:none;stroke:#000000;stroke-width:0.47242498;stroke-linecap:butt;stroke-linejoin:miter;stroke-miterlimit:10;stroke-opacity:1;stroke-dasharray:none"
       d="m 18.443,192.014 78.7375,2.961" /><path
       inkscape:connector-curvature="0"
       id="path62"
       style="fill:none;stroke:#0000d1;stroke-width:0.47242498;stroke-linecap:butt;stroke-linejoin:miter;stroke-miterlimit:10;stroke-opacity:1;stroke-dasharray:none"
       d="M 105.684,177.653 208.043,152.646" /><path
       inkscape:connector-curvature="0"
       id="path64"
       style="fill:none;stroke:#0000d1;stroke-width:0.47242498;stroke-linecap:butt;stroke-linejoin:miter;stroke-miterlimit:10;stroke-opacity:1;stroke-dasharray:none"
       d="m 206.783,152.961 89.761,0.125" /><path
       inkscape:connector-curvature="0"
       id="path66"
       style="fill:none;stroke:#0000d1;stroke-width:0.47242498;stroke-linecap:butt;stroke-linejoin:miter;stroke-miterlimit:10;stroke-opacity:1;stroke-dasharray:none"
       d="M 207.224,152.646 580.439,61.4359" /><path
       inkscape:connector-curvature="0"
       id="path68"
       style="fill:none;stroke:#0000d1;stroke-width:0.47242498;stroke-linecap:butt;stroke-linejoin:miter;stroke-miterlimit:10;stroke-opacity:1;stroke-dasharray:none"
       d="m 267.254,141.622 25.951,-2.078 10.268,-1.701 21.227,-1.449 19.842,-3.59" /><path
       inkscape:connector-curvature="0"
       id="path70"
       style="fill:none;stroke:#0000d1;stroke-width:0.47242498;stroke-linecap:butt;stroke-linejoin:miter;stroke-miterlimit:10;stroke-opacity:1;stroke-dasharray:none"
       d="m 296.229,149.811 14.9285,0 0,6.425 -14.9285,0 0,-6.425 z" /><path
       inkscape:connector-curvature="0"
       id="path72"
       style="fill:none;stroke:#0000d1;stroke-width:0.47242498;stroke-linecap:butt;stroke-linejoin:miter;stroke-miterlimit:10;stroke-opacity:1;stroke-dasharray:none"
       d="m 311.346,150.882 6.29883,0 0,3.65312 -6.29883,0 0,-3.65312 z" /><path
       inkscape:connector-curvature="0"
       id="path74"
       style="fill:none;stroke:#000000;stroke-width:0.47242498;stroke-linecap:butt;stroke-linejoin:miter;stroke-miterlimit:10;stroke-opacity:1;stroke-dasharray:none"
       d="m 608.155,81.4668 -8.566,0" /><path
       inkscape:connector-curvature="0"
       id="path76"
       style="fill:none;stroke:#000000;stroke-width:0.47242498;stroke-linecap:butt;stroke-linejoin:miter;stroke-miterlimit:10;stroke-opacity:1;stroke-dasharray:none"
       d="m 608.155,65.7195 -8.377,-0.0633" /><path
       inkscape:connector-curvature="0"
       id="path78"
       style="fill:none;stroke:#00008f;stroke-width:0.47242498;stroke-linecap:butt;stroke-linejoin:miter;stroke-miterlimit:10;stroke-opacity:1;stroke-dasharray:1.8897;stroke-dashoffset:0"
       d="M 512.914,62.0031 504.537,36.618" /><path
       inkscape:connector-curvature="0"
       id="path80"
       style="fill:none;stroke:#0000d1;stroke-width:2.83455014;stroke-linecap:round;stroke-linejoin:round;stroke-miterlimit:10;stroke-opacity:1;stroke-dasharray:none"
       d="m 251.569,144.772 0.126,0" /><path
       inkscape:connector-curvature="0"
       id="path82"
       style="fill:none;stroke:#0000d1;stroke-width:0.47242498;stroke-linecap:butt;stroke-linejoin:miter;stroke-miterlimit:10;stroke-opacity:1;stroke-dasharray:none"
       d="m 253.962,144.583 4.41,2.835 5.669,-1.764 -1.26,-5.733 -5.48,0.127 -3.213,4.409" /><path
       inkscape:connector-curvature="0"
       id="path84"
       style="fill:none;stroke:#0000d1;stroke-width:0.47242498;stroke-linecap:butt;stroke-linejoin:miter;stroke-miterlimit:10;stroke-opacity:1;stroke-dasharray:none"
       d="m 264.041,144.331 2.33,-0.567 -0.441,-3.339 -2.456,0.441 0.567,3.465 z" /><path
       inkscape:connector-curvature="0"
       id="path86"
       style="fill:#0000d1;fill-opacity:1;fill-rule:evenodd;stroke:none"
       d="m 267.002,144.52 1.07,-0.126 -0.945,-5.543 -1.197,0.504" /><path
       inkscape:connector-curvature="0"
       id="path88"
       style="fill:none;stroke:#0000d1;stroke-width:0.47242498;stroke-linecap:butt;stroke-linejoin:miter;stroke-miterlimit:10;stroke-opacity:1;stroke-dasharray:none"
       d="m 267.002,144.52 1.07,-0.126 -0.945,-5.543 -1.197,0.504 1.072,5.165 z" /><path
       inkscape:connector-curvature="0"
       id="path90"
       style="fill:none;stroke:#0000d1;stroke-width:0.47242498;stroke-linecap:butt;stroke-linejoin:miter;stroke-miterlimit:10;stroke-opacity:1;stroke-dasharray:none"
       d="m 341.33,133.434 6.74,-1.512" /><path
       inkscape:connector-curvature="0"
       id="path92"
       style="fill:none;stroke:#0000d1;stroke-width:0.47242498;stroke-linecap:butt;stroke-linejoin:miter;stroke-miterlimit:10;stroke-opacity:1;stroke-dasharray:none"
       d="m 321.74,138.41 -0.252,-3.654 3.464,-0.377 0.315,3.779 -3.527,0.252 z" /><path
       inkscape:connector-curvature="0"
       id="path94"
       style="fill:none;stroke:#0000d1;stroke-width:0.47242498;stroke-linecap:butt;stroke-linejoin:miter;stroke-miterlimit:10;stroke-opacity:1;stroke-dasharray:none"
       d="m 299.882,140.173 -0.378,-3.527 6.425,-0.693 0.315,3.654 -6.362,0.566 z" /><path
       inkscape:connector-curvature="0"
       id="path96"
       style="fill:#0000d1;fill-opacity:1;fill-rule:evenodd;stroke:none"
       d="m 306.244,138.284 -0.126,-1.26 3.087,-0.378 0.125,1.323" /><path
       inkscape:connector-curvature="0"
       id="path98"
       style="fill:none;stroke:#0000d1;stroke-width:0.47242498;stroke-linecap:butt;stroke-linejoin:miter;stroke-miterlimit:10;stroke-opacity:1;stroke-dasharray:none"
       d="m 306.244,138.284 -0.126,-1.26 3.087,-0.378 0.125,1.323 -3.086,0.315 z" /><path
       inkscape:connector-curvature="0"
       id="path100"
       style="fill:#0000d1;fill-opacity:1;fill-rule:evenodd;stroke:none"
       d="m 292.449,140.804 -0.504,-2.646 4.095,-0.819 0.441,2.709" /><path
       inkscape:connector-curvature="0"
       id="path102"
       style="fill:none;stroke:#0000d1;stroke-width:0.47242498;stroke-linecap:butt;stroke-linejoin:miter;stroke-miterlimit:10;stroke-opacity:1;stroke-dasharray:none"
       d="m 292.449,140.804 -0.504,-2.646 4.095,-0.819 0.441,2.709 -4.032,0.756 z" /><path
       inkscape:connector-curvature="0"
       id="path104"
       style="fill:none;stroke:#0000d1;stroke-width:0.47242498;stroke-linecap:butt;stroke-linejoin:miter;stroke-miterlimit:10;stroke-opacity:1;stroke-dasharray:none"
       d="m 204.011,155.732 -0.945,-4.157 8.945,-2.583 1.197,4.346 -9.197,2.394 z" /><path
       inkscape:connector-curvature="0"
       id="path106"
       style="fill:none;stroke:#ff0707;stroke-width:1.19999999999999996;stroke-linecap:butt;stroke-linejoin:miter;stroke-miterlimit:10;stroke-opacity:1;stroke-dasharray:none"
       d="m 293.898,94.8207 -3.212,-7.4328 9.448,-4.0313 8.504,-2.0156 2.834,0.8817 -1.197,2.8347 -6.487,4.7871 -9.89,4.9762 z" /><path
       inkscape:connector-curvature="0"
       id="path108"
       style="fill:none;stroke:#ff0707;stroke-width:1.19999999999999996;stroke-linecap:butt;stroke-linejoin:miter;stroke-miterlimit:10;stroke-opacity:1;stroke-dasharray:none"
       d="m 314.055,79.0102 1.638,4.1574 3.842,-2.0156 -1.638,-3.9055 -3.842,1.7637 z" /><path
       inkscape:connector-curvature="0"
       id="path110"
       style="fill:none;stroke:#0000d1;stroke-width:0.47242498;stroke-linecap:butt;stroke-linejoin:miter;stroke-miterlimit:10;stroke-opacity:1;stroke-dasharray:none"
       d="m 316.259,123.04 1.575,6.488 15.181,-3.464 -1.197,-6.866 -15.559,3.842 z" /><path
       inkscape:connector-curvature="0"
       id="path112"
       style="fill:none;stroke:#00008f;stroke-width:0.47242498;stroke-linecap:butt;stroke-linejoin:miter;stroke-miterlimit:10;stroke-opacity:1;stroke-dasharray:none"
       d="m 342.148,99.2301 -2.456,0.9449 2.456,6.614 9.575,-3.339" /><path
       inkscape:connector-curvature="0"
       id="path114"
       style="fill:none;stroke:#00008f;stroke-width:0.47242498;stroke-linecap:butt;stroke-linejoin:miter;stroke-miterlimit:10;stroke-opacity:1;stroke-dasharray:none"
       d="m 353.991,102.632 2.456,-0.945 -2.456,-6.6143 -9.575,3.3386" /><path
       inkscape:connector-curvature="0"
       id="path116"
       style="fill:none;stroke:#00008f;stroke-width:0.47242498;stroke-linecap:butt;stroke-linejoin:miter;stroke-miterlimit:10;stroke-opacity:1;stroke-dasharray:none"
       d="m 339.944,101.561 -3.087,1.196 1.512,3.654 2.961,-1.323 -1.386,-3.527 z" /><path
       inkscape:connector-curvature="0"
       id="path118"
       style="fill:none;stroke:#ff0707;stroke-width:1.19999999999999996;stroke-linecap:butt;stroke-linejoin:miter;stroke-miterlimit:10;stroke-opacity:1;stroke-dasharray:none"
       d="m 361.171,61.373 -98.327,42.077 -15.873,8.063 -93.792,47.81" /><path
       inkscape:connector-curvature="0"
       id="path120"
       style="fill:#0000d1;fill-opacity:1;fill-rule:evenodd;stroke:none"
       d="m 325.456,138.977 1.071,-0.126 -0.819,-5.795 -0.819,0.126" /><path
       inkscape:connector-curvature="0"
       id="path122"
       style="fill:none;stroke:#0000d1;stroke-width:0.47242498;stroke-linecap:butt;stroke-linejoin:miter;stroke-miterlimit:10;stroke-opacity:1;stroke-dasharray:none"
       d="m 325.456,138.977 1.071,-0.126 -0.819,-5.795 -0.819,0.126 0.567,5.795 z" /><path
       inkscape:connector-curvature="0"
       id="path124"
       style="fill:#0000b0;fill-opacity:1;fill-rule:evenodd;stroke:none"
       d="m 246.026,113.34 -1.071,-2.205 3.338,-1.449 1.071,2.142" /><path
       inkscape:connector-curvature="0"
       id="path126"
       style="fill:#ff0707;stroke:#ff0707;stroke-width:0.47242497999999999;stroke-linecap:butt;stroke-linejoin:miter;stroke-miterlimit:10;stroke-opacity:1;stroke-dasharray:none;fill-opacity:1"
       d="m 246.026,113.34 -1.071,-2.205 3.338,-1.449 1.071,2.142 -3.338,1.512 z" /><path
       inkscape:connector-curvature="0"
       id="path128"
       style="fill:#0000b0;fill-opacity:1;fill-rule:evenodd;stroke:none"
       d="m 261.71,105.34 -1.26,-1.764 3.087,-2.015 1.26,1.763" /><path
       inkscape:connector-curvature="0"
       id="path130"
       style="fill:#ff0707;stroke:#ff0707;stroke-width:0.47242497999999999;stroke-linecap:butt;stroke-linejoin:miter;stroke-miterlimit:10;stroke-opacity:1;stroke-dasharray:none;fill-opacity:1"
       d="m 261.71,105.34 -1.26,-1.764 3.087,-2.015 1.26,1.763 -3.087,2.016 z" /><path
       inkscape:connector-curvature="0"
       id="path132"
       style="fill:none;stroke:#ff0707;stroke-width:1.19999999999999996;stroke-linecap:butt;stroke-linejoin:miter;stroke-miterlimit:10;stroke-opacity:1;stroke-dasharray:none"
       d="m 336.354,74.7898 -5.418,2.9606 -2.582,-5.543 5.669,-2.4566 2.331,5.039 z" /><path
       inkscape:connector-curvature="0"
       id="path134"
       style="fill:none;stroke:#ff0707;stroke-width:1.19999999999999996;stroke-linecap:butt;stroke-linejoin:miter;stroke-miterlimit:10;stroke-opacity:1;stroke-dasharray:none"
       d="m 336.354,74.0969 -5.103,-11.086 9.008,-3.7797 4.85,11.0864 -8.755,3.7793 z" /><path
       inkscape:connector-curvature="0"
       id="path136"
       style="fill:none;stroke:#ff0707;stroke-width:1.19999999999999996;stroke-linecap:butt;stroke-linejoin:miter;stroke-miterlimit:10;stroke-opacity:1;stroke-dasharray:none"
       d="m 347.818,71.1363 -1.764,0.8192 -3.087,-6.866 9.575,-4.0946" /><path
       inkscape:connector-curvature="0"
       id="path138"
       style="fill:none;stroke:#ff0707;stroke-width:1.19999999999999996;stroke-linecap:butt;stroke-linejoin:miter;stroke-miterlimit:10;stroke-opacity:1;stroke-dasharray:none"
       d="m 354.936,59.7984 1.763,-0.8191 3.087,6.866 -9.575,4.0945" /><path
       inkscape:connector-curvature="0"
       id="path140"
       style="fill:none;stroke:#0000d1;stroke-width:0.47242498;stroke-linecap:butt;stroke-linejoin:miter;stroke-miterlimit:10;stroke-opacity:1;stroke-dasharray:none"
       d="m 345.361,136.205 -1.449,-7.244" /><path
       inkscape:connector-curvature="0"
       id="path142"
       style="fill:none;stroke:#0000d1;stroke-width:0.47242498;stroke-linecap:butt;stroke-linejoin:miter;stroke-miterlimit:10;stroke-opacity:1;stroke-dasharray:none"
       d="m 207.413,152.771 46.612,-8.503" /><path
       inkscape:connector-curvature="0"
       id="path144"
       style="fill:none;stroke:#0000d1;stroke-width:0.47242498;stroke-linecap:butt;stroke-linejoin:miter;stroke-miterlimit:10;stroke-opacity:1;stroke-dasharray:none"
       d="m 215.161,149.622 -1.512,0.567 0.819,2.52 1.511,-0.504 -0.818,-2.583 z" /><path
       inkscape:connector-curvature="0"
       id="path146"
       style="fill:none;stroke:#0000d1;stroke-width:0.47242498;stroke-linecap:butt;stroke-linejoin:miter;stroke-miterlimit:10;stroke-opacity:1;stroke-dasharray:none"
       d="m 220.137,148.173 -2.016,0.504 0.693,2.709 2.016,-0.504 -0.693,-2.709 z" /><path
       inkscape:connector-curvature="0"
       id="path148"
       style="fill:none;stroke:#00008f;stroke-width:0.4728;stroke-linecap:butt;stroke-linejoin:miter;stroke-miterlimit:10;stroke-opacity:1;stroke-dasharray:none"
       d="M 123.195,173.054 572.692,29.3113" /><path
       inkscape:connector-curvature="0"
       id="path150"
       style="fill:none;stroke:#0000d1;stroke-width:0.47280000000000000;stroke-linecap:butt;stroke-linejoin:miter;stroke-miterlimit:10;stroke-opacity:1;stroke-dasharray:none"
       d="m 260.702,119.072 0.819,2.835 6.74,-2.646 -1.323,-2.709 -6.236,2.52 z" /><path
       inkscape:connector-curvature="0"
       id="path152"
       style="fill:none;stroke:#0000d1;stroke-width:0.47280000000000000;stroke-linecap:butt;stroke-linejoin:miter;stroke-miterlimit:10;stroke-opacity:1;stroke-dasharray:none"
       d="M 213.334,139.229 374.588,76.8688" /><path
       inkscape:connector-curvature="0"
       id="path154"
       style="fill:none;stroke:#0000d1;stroke-width:0.47280000000000000;stroke-linecap:butt;stroke-linejoin:miter;stroke-miterlimit:10;stroke-opacity:1;stroke-dasharray:none"
       d="m 237.144,131.544 -1.512,-3.087 -12.661,4.41 -9.637,5.669 0.693,1.134 23.117,-8.126 z" /><path
       inkscape:connector-curvature="0"
       id="path156"
       style="fill:none;stroke:#0000d1;stroke-width:0.47280000000000000;stroke-linecap:butt;stroke-linejoin:miter;stroke-miterlimit:10;stroke-opacity:1;stroke-dasharray:none"
       d="m 201.555,145.969 -1.89,-3.087 10.582,-5.165 2.142,2.96 -10.834,5.292 z" /><path
       inkscape:connector-curvature="0"
       id="path158"
       style="fill:none;stroke:#0000d1;stroke-width:0.47280000000000000;stroke-linecap:butt;stroke-linejoin:miter;stroke-miterlimit:10;stroke-opacity:1;stroke-dasharray:none"
       d="m 259.632,119.387 -2.961,-6.866 8.063,-3.15 2.834,6.867 -7.936,3.149 z" /><path
       inkscape:connector-curvature="0"
       id="path160"
       style="fill:none;stroke:#0000d1;stroke-width:0.47280000000000000;stroke-linecap:butt;stroke-linejoin:miter;stroke-miterlimit:10;stroke-opacity:1;stroke-dasharray:none"
       d="m 123.006,173.054 89.005,-33.384 152.94,-52.9118 0,0.1258" /><path
       inkscape:connector-curvature="0"
       id="path162"
       style="fill:none;stroke:#0000d1;stroke-width:0.47280000000000000;stroke-linecap:butt;stroke-linejoin:miter;stroke-miterlimit:10;stroke-opacity:1;stroke-dasharray:none"
       d="m 291.882,106.663 1.197,3.149 7.118,-2.708 -1.134,-3.15 -7.181,2.709 z" /><path
       inkscape:connector-curvature="0"
       id="path164"
       style="fill:none;stroke:#0000d1;stroke-width:0.47280000000000000;stroke-linecap:butt;stroke-linejoin:miter;stroke-miterlimit:10;stroke-opacity:1;stroke-dasharray:none"
       d="m 311.22,99.293 1.071,3.464 7.307,-2.708 -1.071,-3.4646 -7.307,2.7086 z" /><path
       inkscape:connector-curvature="0"
       id="path166"
       style="fill:none;stroke:#0000d1;stroke-width:0.47280000000000000;stroke-linecap:butt;stroke-linejoin:miter;stroke-miterlimit:10;stroke-opacity:1;stroke-dasharray:none"
       d="m 333.519,94.2539 1.763,5.102 6.804,-2.5196 -1.764,-5.1652 -6.803,2.5828 z" /><path
       inkscape:connector-curvature="0"
       id="path168"
       style="fill:none;stroke:#0000d1;stroke-width:0.47280000000000000;stroke-linecap:butt;stroke-linejoin:miter;stroke-miterlimit:10;stroke-opacity:1;stroke-dasharray:none"
       d="m 365.77,89.7816 -2.394,-5.2914 6.614,-2.8343 2.268,5.5429 -6.488,2.5828 z" /><path
       inkscape:connector-curvature="0"
       id="path170"
       style="fill:none;stroke:#0000d1;stroke-width:0.47280000000000000;stroke-linecap:butt;stroke-linejoin:miter;stroke-miterlimit:10;stroke-opacity:1;stroke-dasharray:none"
       d="m 372.636,82.0336 -3.339,-7.9367 8.756,-3.6531 3.401,7.9996 -8.818,3.5902 z" /><path
       inkscape:connector-curvature="0"
       id="path172"
       style="fill:#ffffff;fill-opacity:1;fill-rule:evenodd;stroke:none"
       d="m 458.365,156.551 -3.779,-18.204 28.786,-6.614 3.339,18.897" /><path
       inkscape:connector-curvature="0"
       id="path174"
       style="fill:none;stroke:#ffffff;stroke-width:0.47242498;stroke-linecap:butt;stroke-linejoin:miter;stroke-miterlimit:10;stroke-opacity:1;stroke-dasharray:none"
       d="m 458.365,156.551 -3.779,-18.204 28.786,-6.614 3.339,18.897 -28.346,5.921 z" /><path
       inkscape:connector-curvature="0"
       id="path176"
       style="fill:none;stroke:#000000;stroke-width:0.47242498;stroke-linecap:butt;stroke-linejoin:bevel;stroke-miterlimit:10;stroke-opacity:1;stroke-dasharray:3.7794;stroke-dashoffset:0"
       d="m 17.75,192.203 86.863,14.488" /><g
       id="g178"
       transform="scale(0.1,0.1)"><g
         clip-path="url(#clipPath182)"
         id="g180"><path
           inkscape:connector-curvature="0"
           id="path186"
           style="fill:none;stroke:#000000;stroke-width:4.72424984;stroke-linecap:butt;stroke-linejoin:bevel;stroke-miterlimit:10;stroke-opacity:1;stroke-dasharray:none"
           d="m 29.4727,1910.07 2.5195,0 4.4101,0.63 8.1875,0.62 11.3399,0.63 14.4883,0.64 15.1172,1.25 15.7458,0.63 15.746,1.26 14.489,0.63 14.488,0.63 13.226,0.63 13.231,0.63 25.195,0 13.86,0.63 52.91,0 14.488,-0.63 30.863,0 15.75,-0.63 15.118,0 15.746,-0.63 15.117,0 13.859,-0.63 13.856,0 12.597,-0.63 11.34,0 10.707,-0.62 9.449,0 8.821,-0.64 8.816,0 8.192,-0.63 7.558,-0.63 7.559,-0.62 7.558,-0.64 7.559,-1.25 8.187,-1.27 8.188,-1.25 10.078,-1.89 10.082,-2.52 11.965,-2.52 12.598,-3.15 13.859,-3.78 15.746,-3.78 17.641,-4.41 19.523,-5.04 12.602,-3.15 14.484,-3.78 15.117,-3.78 15.75,-3.78 17.008,-4.41 18.266,-4.41 18.898,-4.4 19.527,-5.04 20.786,-5.04 20.785,-5.68 21.418,-5.03 22.047,-5.67 22.046,-5.04 21.418,-5.67 22.043,-5.67 21.418,-5.04 21.418,-5.04 20.157,-5.04 19.527,-5.04 18.899,-4.41 18.26,-4.4 17.01,-4.41 15.75,-3.78 15.12,-3.78 14.48,-3.78 13.23,-3.15 18.9,-5.04 17.64,-3.78 15.74,-4.41 13.86,-3.15 13.23,-3.15 11.34,-3.15 10.7,-3.15 9.45,-2.52 8.82,-3.15 7.56,-2.52 7.56,-2.52 7.56,-3.15 6.93,-3.14 7.56,-3.16 7.56,-3.14 8.81,-4.42 8.19,-3.77 9.45,-4.41 10.08,-4.41 11.34,-5.04 11.97,-5.67 12.59,-6.3 13.23,-5.67 13.86,-6.3 13.86,-6.93 13.86,-6.3 13.85,-6.29 13.23,-6.3 12.6,-5.67 11.97,-5.67 10.7,-5.04 10.72,-5.04 8.81,-4.41 8.82,-3.78 10.71,-5.04 10.08,-5.04 8.19,-3.77 8.19,-4.41 6.93,-3.79 6.92,-3.77 6.93,-4.41 6.3,-4.41 6.93,-4.41 7.56,-5.04 8.19,-6.3 9.45,-6.93 6.92,-5.04 7.57,-5.67 8.81,-6.3 9.45,-6.29 10.08,-7.56 10.71,-8.19 11.34,-8.19 12.59,-8.82 11.97,-9.45 13.23,-8.82 12.6,-9.45 12.59,-8.81 11.97,-9.45 12.6,-8.82 11.34,-8.19 11.34,-8.19 10.71,-7.56 10.08,-7.55 11.33,-8.2 10.71,-8.18 10.71,-7.56 10.71,-7.56 10.71,-8.19 10.08,-7.56 10.07,-7.56 10.08,-6.93 9.45,-6.92 9.45,-6.93 8.19,-6.3 8.19,-6.3 7.55,-5.67 6.93,-5.04 6.93,-5.67 6.3,-4.41 8.19,-6.3 8.19,-6.93 7.56,-6.29 8.19,-6.31 8.19,-6.93 8.18,-6.92 7.56,-6.3 7.56,-6.3 7.56,-6.3 6.93,-5.67 6.3,-5.67 6.3,-5.67 6.29,-5.67 6.31,-5.67 6.3,-5.66 6.92,-5.67 6.93,-6.3 6.93,-6.3 6.93,-6.3 6.93,-6.3 6.3,-5.67 5.67,-5.04 5.67,-5.04 5.04,-5.04 5.04,-4.4 5.03,-5.04 5.04,-5.05 5.04,-5.03 5.67,-5.67 6.3,-5.67 6.3,-6.3 6.3,-6.3 6.3,-6.93 6.93,-7.56 7.55,-7.56 7.56,-8.18 5.67,-6.3 6.93,-6.93 6.93,-7.56 7.56,-8.19 7.56,-8.19 8.82,-9.45 8.19,-9.45 9.44,-9.44 8.82,-10.08 8.82,-10.081 8.82,-10.078 8.82,-9.449 8.19,-8.816 7.56,-9.45 7.56,-8.191 7.55,-8.187 6.93,-8.188 6.93,-8.191 6.93,-8.188 6.93,-8.187 6.93,-8.821 6.93,-8.187 6.92,-8.821 6.93,-8.816 6.93,-8.187 6.93,-8.821 6.3,-8.187 6.93,-8.821 5.67,-8.187 6.3,-7.559 5.67,-8.191 6.3,-7.559 5.67,-8.187 5.66,-8.188 6.3,-8.82 6.3,-8.816 6.93,-9.45 6.93,-9.449 6.93,-10.078 6.93,-10.078 6.93,-9.449 6.93,-10.078 6.3,-9.45 6.29,-9.449 6.3,-9.445 5.67,-8.192 5.67,-8.816 5.67,-7.559 5.04,-8.191 5.04,-8.187 5.04,-7.559 5.67,-8.188 5.04,-8.82 5.66,-8.816 5.68,-8.821 5.66,-8.82 5.04,-8.816 5.67,-8.821 5.04,-9.449 5.67,-8.816 5.04,-8.821 5.04,-8.816 5.04,-8.191 5.04,-9.446 4.4,-8.82 5.68,-9.449 5.66,-10.078 5.67,-11.336 6.93,-12.598 6.93,-13.859 8.19,-15.746 8.82,-16.379 8.82,-17.637 8.82,-17.008 8.18,-15.746 6.93,-13.23 9.45,-18.266" /></g></g><path
       inkscape:connector-curvature="0"
       id="path188"
       style="fill:#000000;fill-opacity:1;fill-rule:evenodd;stroke:none"
       d="m 262.466,41.5941 5.165,-5.8582 -1.826,7.6219 -3.339,-1.7637" /><path
       inkscape:connector-curvature="0"
       id="path190"
       style="fill:none;stroke:#000000;stroke-width:0.47242498;stroke-linecap:butt;stroke-linejoin:miter;stroke-miterlimit:10;stroke-opacity:1;stroke-dasharray:none"
       d="m 262.466,41.5941 5.165,-5.8582 -1.826,7.6219 -3.339,-1.7637 z" /><g
       id="g206"
       transform="matrix(0.99971039,0.02406521,-0.02406521,0.99971039,-1.7500717,-11.856803)"><text
         id="text208"
         transform="matrix(0.970296,-0.241922,-0.241922,-0.970296,458.806,144.898)"><tspan
           id="tspan210"
           sodipodi:role="line"
           x="0"
           style="font-size:11.99960327px;font-variant:normal;font-weight:normal;writing-mode:lr-tb;fill:#000000;fill-opacity:1;fill-rule:nonzero;stroke:none;font-family:Helvetica;-inkscape-font-specification:Helvetica"
           y="0">{\fontfamily{fds}</tspan><tspan
           sodipodi:role="line"
           x="0"
           style="font-size:11.99960327px;font-variant:normal;font-weight:normal;writing-mode:lr-tb;fill:#000000;fill-opacity:1;fill-rule:nonzero;stroke:none;font-family:Helvetica;-inkscape-font-specification:Helvetica"
           y="14.999504"
           id="tspan3681">\selectfont</tspan><tspan
           sodipodi:role="line"
           x="0"
           style="font-size:11.99960327px;font-variant:normal;font-weight:normal;writing-mode:lr-tb;fill:#000000;fill-opacity:1;fill-rule:nonzero;stroke:none;font-family:Helvetica;-inkscape-font-specification:Helvetica"
           y="29.999008"
           id="tspan3683">\footnotesize</tspan><tspan
           sodipodi:role="line"
           x="0"
           style="font-size:11.99960327px;font-variant:normal;font-weight:normal;writing-mode:lr-tb;fill:#000000;fill-opacity:1;fill-rule:nonzero;stroke:none;font-family:Helvetica;-inkscape-font-specification:Helvetica"
           y="44.998512"
           id="tspan3685">$65$ m}</tspan></text>
</g><text
       y="-162.93625"
       x="300.02579"
       transform="scale(1,-1)"
       id="text226"
       style="fill:#0000d1;fill-opacity:1"><tspan
         y="-162.93625"
         x="300.02579"
         style="font-size:4px;font-variant:normal;font-weight:normal;writing-mode:lr-tb;fill:#0000d1;fill-opacity:1;fill-rule:nonzero;stroke:none;font-family:Helvetica;-inkscape-font-specification:Helvetica"
         sodipodi:role="line"
         id="tspan228">{\fontfamily{fds}</tspan><tspan
         id="tspan3712"
         y="-157.93625"
         x="300.02579"
         style="font-size:4px;font-variant:normal;font-weight:normal;writing-mode:lr-tb;fill:#0000d1;fill-opacity:1;fill-rule:nonzero;stroke:none;font-family:Helvetica;-inkscape-font-specification:Helvetica"
         sodipodi:role="line">\selectfont</tspan><tspan
         id="tspan3714"
         y="-152.93625"
         x="300.02579"
         style="font-size:4px;font-variant:normal;font-weight:normal;writing-mode:lr-tb;fill:#0000d1;fill-opacity:1;fill-rule:nonzero;stroke:none;font-family:Helvetica;-inkscape-font-specification:Helvetica"
         sodipodi:role="line">\footnotesize</tspan><tspan
         y="-147.93625"
         x="300.02579"
         style="font-size:4px;font-variant:normal;font-weight:normal;writing-mode:lr-tb;fill:#0000d1;fill-opacity:1;fill-rule:nonzero;stroke:none;font-family:Helvetica;-inkscape-font-specification:Helvetica"
         sodipodi:role="line"
         id="tspan230">4c}</tspan></text>
<text
       id="text3720"
       transform="scale(1,-1)"
       x="331.04343"
       y="-139.00311"
       style="fill:#0000d1;fill-opacity:1"><tspan
         id="tspan3722"
         sodipodi:role="line"
         style="font-size:4px;font-variant:normal;font-weight:normal;writing-mode:lr-tb;fill:#0000d1;fill-opacity:1;fill-rule:nonzero;stroke:none;font-family:Helvetica;-inkscape-font-specification:Helvetica"
         x="331.04343"
         y="-139.00311">{\fontfamily{fds}</tspan><tspan
         sodipodi:role="line"
         style="font-size:4px;font-variant:normal;font-weight:normal;writing-mode:lr-tb;fill:#0000d1;fill-opacity:1;fill-rule:nonzero;stroke:none;font-family:Helvetica;-inkscape-font-specification:Helvetica"
         x="331.04343"
         y="-134.00311"
         id="tspan3724">\selectfont</tspan><tspan
         sodipodi:role="line"
         style="font-size:4px;font-variant:normal;font-weight:normal;writing-mode:lr-tb;fill:#0000d1;fill-opacity:1;fill-rule:nonzero;stroke:none;font-family:Helvetica;-inkscape-font-specification:Helvetica"
         x="331.04343"
         y="-129.00311"
         id="tspan3726">\footnotesize</tspan><tspan
         id="tspan3728"
         sodipodi:role="line"
         style="font-size:4px;font-variant:normal;font-weight:normal;writing-mode:lr-tb;fill:#0000d1;fill-opacity:1;fill-rule:nonzero;stroke:none;font-family:Helvetica;-inkscape-font-specification:Helvetica"
         x="331.04343"
         y="-124.00311">4d}</tspan></text>
<text
       y="-81.062263"
       x="373.44885"
       transform="scale(1,-1)"
       id="text3730"
       style="fill:#0000d1;fill-opacity:1"><tspan
         y="-81.062263"
         x="373.44885"
         style="font-size:4px;font-variant:normal;font-weight:normal;writing-mode:lr-tb;fill:#0000d1;fill-opacity:1;fill-rule:nonzero;stroke:none;font-family:Helvetica;-inkscape-font-specification:Helvetica"
         sodipodi:role="line"
         id="tspan3732">{\fontfamily{fds}</tspan><tspan
         id="tspan3734"
         y="-76.062263"
         x="373.44885"
         style="font-size:4px;font-variant:normal;font-weight:normal;writing-mode:lr-tb;fill:#0000d1;fill-opacity:1;fill-rule:nonzero;stroke:none;font-family:Helvetica;-inkscape-font-specification:Helvetica"
         sodipodi:role="line">\selectfont</tspan><tspan
         id="tspan3736"
         y="-71.062263"
         x="373.44885"
         style="font-size:4px;font-variant:normal;font-weight:normal;writing-mode:lr-tb;fill:#0000d1;fill-opacity:1;fill-rule:nonzero;stroke:none;font-family:Helvetica;-inkscape-font-specification:Helvetica"
         sodipodi:role="line">\footnotesize</tspan><tspan
         y="-66.062263"
         x="373.44885"
         style="font-size:4px;font-variant:normal;font-weight:normal;writing-mode:lr-tb;fill:#0000d1;fill-opacity:1;fill-rule:nonzero;stroke:none;font-family:Helvetica;-inkscape-font-specification:Helvetica"
         sodipodi:role="line"
         id="tspan3738">2b}</tspan></text>
<path
       inkscape:connector-curvature="0"
       id="path240"
       style="fill:#ffd600;fill-opacity:1;fill-rule:evenodd;stroke:none"
       d="m 46.7883,192.455 -0.3149,-5.48 6.9289,-0.315 0.1258,5.795" /><path
       inkscape:connector-curvature="0"
       id="path242"
       style="fill:none;stroke:#ffd600;stroke-width:0.47242498;stroke-linecap:butt;stroke-linejoin:miter;stroke-miterlimit:10;stroke-opacity:1;stroke-dasharray:none"
       d="m 46.7883,192.455 -0.3149,-5.48 6.9289,-0.315 0.1258,5.795 -6.7398,0 z" /><path
       inkscape:connector-curvature="0"
       id="path244"
       style="fill:#ffd600;fill-opacity:1;fill-rule:evenodd;stroke:none"
       d="m 13.8445,194.03 0.3149,-5.669 5.5433,0.189 0.1258,5.48" /><path
       inkscape:connector-curvature="0"
       id="path246"
       style="fill:none;stroke:#ffd600;stroke-width:0.47242498;stroke-linecap:butt;stroke-linejoin:miter;stroke-miterlimit:10;stroke-opacity:1;stroke-dasharray:none"
       d="m 13.8445,194.03 0.3149,-5.669 5.5433,0.189 0.1258,5.48 -5.984,0 z" /><path
       inkscape:connector-curvature="0"
       id="path248"
       style="fill:#d10000;fill-opacity:1;fill-rule:evenodd;stroke:none"
       d="m 68.8348,188.361 -0.8188,-3.906 37.479,-9.133 0.819,4.22" /><path
       inkscape:connector-curvature="0"
       id="path250"
       style="fill:none;stroke:#d10000;stroke-width:0.47242498;stroke-linecap:butt;stroke-linejoin:miter;stroke-miterlimit:10;stroke-opacity:1;stroke-dasharray:none"
       d="m 68.8348,188.361 -0.8188,-3.906 37.479,-9.133 0.819,4.22 -37.4792,8.819 z" /><path
       inkscape:connector-curvature="0"
       id="path252"
       style="fill:#ffd600;fill-opacity:1;fill-rule:evenodd;stroke:none"
       d="m 120.802,175.133 -1.764,-5.039 5.228,-1.89 2.016,4.913" /><path
       inkscape:connector-curvature="0"
       id="path254"
       style="fill:none;stroke:#ffd600;stroke-width:0.47242498;stroke-linecap:butt;stroke-linejoin:miter;stroke-miterlimit:10;stroke-opacity:1;stroke-dasharray:none"
       d="m 120.802,175.133 -1.764,-5.039 5.228,-1.89 2.016,4.913 -5.48,2.016 z" /><path
       inkscape:connector-curvature="0"
       id="path256"
       style="fill:#ffd600;fill-opacity:1;fill-rule:evenodd;stroke:none"
       d="m 152.423,161.149 -3.15,-4.724 5.039,-3.15 3.15,4.725" /><path
       inkscape:connector-curvature="0"
       id="path258"
       style="fill:none;stroke:#ffd600;stroke-width:0.47242498;stroke-linecap:butt;stroke-linejoin:miter;stroke-miterlimit:10;stroke-opacity:1;stroke-dasharray:none"
       d="m 152.423,161.149 -3.15,-4.724 5.039,-3.15 3.15,4.725 -5.039,3.149 z" /><path
       inkscape:connector-curvature="0"
       id="path260"
       style="fill:#cccccc;fill-opacity:1;fill-rule:evenodd;stroke:none"
       d="M 91.952,218.281 2.19141,204.738 3.64023,197.18 85.968,210.407 l 3.1496,-21.542 104.7524,-25.7 -5.228,-21.858 86.8,-62.8636 -12.598,-16.6922 5.669,-4.4094 16.189,22.2355 -71.494,53.8567 -1.386,-1.26 -15.936,11.464 6.299,23.81 -87.556,22.991 -0.315,-1.448 -18.3933,3.779 -3.7797,25.385" /><path
       inkscape:connector-curvature="0"
       id="path262"
       style="fill:none;stroke:#000000;stroke-width:0.47242498;stroke-linecap:butt;stroke-linejoin:miter;stroke-miterlimit:10;stroke-opacity:1;stroke-dasharray:none"
       d="M 91.952,218.281 2.19141,204.738 3.64023,197.18 85.968,210.407 l 3.1496,-21.542 104.7524,-25.7 -5.228,-21.858 86.8,-62.8636 -12.598,-16.6922 5.669,-4.4094 16.189,22.2355 -71.494,53.8567 -1.386,-1.26 -15.936,11.464 6.299,23.81 -87.556,22.991 -0.315,-1.448 -18.3933,3.779 -3.7797,25.385 -0.189,0.126 z" /><path
       inkscape:connector-curvature="0"
       id="path264"
       style="fill:none;stroke:#00008f;stroke-width:0.47242498;stroke-linecap:butt;stroke-linejoin:miter;stroke-miterlimit:10;stroke-opacity:1;stroke-dasharray:none"
       d="M 489.545,70.0656 482.112,46.4445" /><path
       inkscape:connector-curvature="0"
       id="path266"
       style="fill:none;stroke:#00008f;stroke-width:0.47242498;stroke-linecap:butt;stroke-linejoin:miter;stroke-miterlimit:10;stroke-opacity:1;stroke-dasharray:none"
       d="m 465.798,56.1449 -2.142,-7.1179 -7.055,2.1418 2.142,6.9289 7.055,-1.9528 z" /><path
       inkscape:connector-curvature="0"
       id="path268"
       style="fill:none;stroke:#00008f;stroke-width:0.47242498;stroke-linecap:butt;stroke-linejoin:miter;stroke-miterlimit:10;stroke-opacity:1;stroke-dasharray:none"
       d="m 482.112,46.5703 -17.385,5.7953" /><path
       inkscape:connector-curvature="0"
       id="path270"
       style="fill:none;stroke:#00008f;stroke-width:0.47242498;stroke-linecap:butt;stroke-linejoin:miter;stroke-miterlimit:10;stroke-opacity:1;stroke-dasharray:none"
       d="m 472.979,79.766 -2.142,-7.1176 -7.055,2.1414 2.142,6.929 7.055,-1.9528 z" /><path
       inkscape:connector-curvature="0"
       id="path272"
       style="fill:none;stroke:#00008f;stroke-width:0.47242498;stroke-linecap:butt;stroke-linejoin:miter;stroke-miterlimit:10;stroke-opacity:1;stroke-dasharray:none"
       d="m 489.293,70.1918 -17.385,5.7949" /><path
       inkscape:connector-curvature="0"
       id="path274"
       style="fill:none;stroke:#00008f;stroke-width:0.47242498;stroke-linecap:butt;stroke-linejoin:miter;stroke-miterlimit:10;stroke-opacity:1;stroke-dasharray:none"
       d="m 486.332,60.743 23.433,-7.5586 -2.835,-9.5746 -15.873,5.0394 -5.291,4.0313 -1.386,2.2675 1.952,5.795 z" /><path
       inkscape:connector-curvature="0"
       id="path276"
       style="fill:none;stroke:#00008f;stroke-width:0.47242498;stroke-linecap:butt;stroke-linejoin:miter;stroke-miterlimit:10;stroke-opacity:1;stroke-dasharray:none"
       d="m 486.332,52.8062 2.52,6.7403" /><path
       inkscape:connector-curvature="0"
       id="path278"
       style="fill:none;stroke:#00008f;stroke-width:0.47242498;stroke-linecap:butt;stroke-linejoin:miter;stroke-miterlimit:10;stroke-opacity:1;stroke-dasharray:none"
       d="m 507.749,53.7512 -2.583,-8.2516 -18.455,6.1102" /><path
       inkscape:connector-curvature="0"
       id="path280"
       style="fill:none;stroke:#00008f;stroke-width:0.47242498;stroke-linecap:butt;stroke-linejoin:miter;stroke-miterlimit:10;stroke-opacity:1;stroke-dasharray:none"
       d="m 276.45,126.001 -1.071,-3.654 8.63,-2.708 1.007,3.905 -8.566,2.457 z" /><path
       inkscape:connector-curvature="0"
       id="path282"
       style="fill:none;stroke:#00008f;stroke-width:0.47242498;stroke-linecap:butt;stroke-linejoin:miter;stroke-miterlimit:10;stroke-opacity:1;stroke-dasharray:none"
       d="m 323.062,86.5691 2.961,3.6536 11.212,-9.0707 -2.582,-3.6536 -11.591,9.0707 z" /><path
       inkscape:connector-curvature="0"
       id="path284"
       style="fill:#cccccc;fill-opacity:1;fill-rule:evenodd;stroke:none"
       d="m 0.742578,170.409 0,-3.969 0.062891,-0.567 0,-1.7 2.078911,0 1.32265,0.063 1.32266,0 0.75586,0.063 1.88984,0 1.00781,0.063 1.1969,0 1.1969,0.063 5.291,0 1.323,0.063 1.3856,-0.063 5.1652,0 1.3227,-0.063 1.323,0 1.3855,-0.063 1.4489,-0.063 1.4488,-0.063 1.4488,0 1.5117,-0.063 1.4489,-0.063 1.4488,-0.126 1.3856,-0.063 1.323,-0.063 1.3227,-0.063 1.1968,-0.063 1.1336,-0.063 1.134,-0.126 1.0707,-0.063 1.0711,-0.063 1.1336,-0.126 1.0711,-0.063 1.1336,-0.126 1.0707,-0.126 1.0711,-0.126 1.0707,-0.126 1.134,-0.189 1.0707,-0.126 1.0707,-0.189 1.0711,-0.126 1.0078,-0.189 1.0707,-0.189 1.0078,-0.189 1.0078,-0.189 1.0707,-0.189 0.9449,-0.189 1.0078,-0.189 1.0711,-0.252 1.0707,-0.189 1.134,-0.252 1.1965,-0.252 1.1969,-0.252 1.2598,-0.252 1.2597,-0.314 1.2602,-0.252 1.2597,-0.252 1.2598,-0.315 1.1336,-0.252 1.1969,-0.252 1.0707,-0.252 1.0082,-0.252 1.0078,-0.252 0.9445,-0.252 1.0711,-0.252 1.0078,-0.252 0.945,-0.252 1.0078,-0.252 1.0078,-0.252 1.0078,-0.252 1.0078,-0.315 1.0078,-0.252 1.0078,-0.315 0.945,-0.252 1.0078,-0.314 0.8816,-0.316 0.9449,-0.252 0.8821,-0.315 0.8816,-0.314 0.9449,-0.315 0.8821,-0.315 0.945,-0.315 1.008,-0.315 1.007,-0.378 1.071,-0.378 1.134,-0.441 1.134,-0.378 1.134,-0.441 1.133,-0.441 1.071,-0.378 1.071,-0.441 1.071,-0.378 0.945,-0.377 0.882,-0.316 0.881,-0.314 0.82,-0.379 1.007,-0.377 1.008,-0.378 0.945,-0.378 0.945,-0.378 0.945,-0.441 0.882,-0.378 0.881,-0.315 0.819,-0.378 0.756,-0.378 0.756,-0.315 0.693,-0.315 0.693,-0.315 0.693,-0.315 0.693,-0.315 0.755,-0.377 0.756,-0.379 0.819,-0.377 0.819,-0.378 0.819,-0.441 0.819,-0.378 0.819,-0.441 0.756,-0.378 0.692,-0.378 0.693,-0.315 0.693,-0.378 0.756,-0.378 0.693,-0.378 0.756,-0.441 0.819,-0.378 0.756,-0.441 0.755,-0.377 0.756,-0.441 0.693,-0.379 0.693,-0.377 0.63,-0.315 0.63,-0.378 0.693,-0.378 0.756,-0.441 0.756,-0.378 0.755,-0.441 0.756,-0.504 0.819,-0.441 0.756,-0.441 0.693,-0.441 0.693,-0.441 0.693,-0.441 0.567,-0.315 0.63,-0.377 0.629,-0.441 0.693,-0.378 0.693,-0.504 0.693,-0.441 0.756,-0.504 0.693,-0.441 0.756,-0.504 0.693,-0.441 0.693,-0.504 0.693,-0.441 0.693,-0.441 0.692,-0.504 0.756,-0.504 0.819,-0.566 0.819,-0.567 0.819,-0.63 0.882,-0.567 0.818,-0.567 0.82,-0.567 0.755,-0.567 0.756,-0.567 0.756,-0.504 0.693,-0.503 0.693,-0.568 0.756,-0.566 0.819,-0.567 0.755,-0.567 0.819,-0.63 0.819,-0.63 0.819,-0.63 0.756,-0.567 0.693,-0.567 0.756,-0.567 0.692,-0.566 0.63,-0.568 0.756,-0.566 0.693,-0.567 0.819,-0.63 0.756,-0.693 0.819,-0.63 0.819,-0.693 0.819,-0.693 0.755,-0.63 0.756,-0.63 0.693,-0.629 0.693,-0.63 0.693,-0.63 0.693,-0.63 0.756,-0.693 0.756,-0.6931 0.756,-0.6926 0.756,-0.7559 0.755,-0.6929 0.756,-0.693 0.63,-0.6301 0.63,-0.6297 0.63,-0.5668 0.504,-0.5039 0.63,-0.5672 0.567,-0.6297 0.63,-0.5671 0.566,-0.5668 0.567,-0.5668 0.567,-0.5039 0.504,-0.504 0.504,-0.5039 0.441,-0.441 0.441,-0.5039 0.441,-0.441 0.441,-0.441 0.504,-0.5039 0.504,-0.5039 0.504,-0.5668 0.566,-0.5668 0.504,-0.5672 0.568,-0.5668 0.503,-0.5039 0.441,-0.5668 0.504,-0.5039 0.567,-0.5672 0.504,-0.6297 0.63,-0.6301 0.63,-0.6925 0.567,-0.693 0.63,-0.693 0.629,-0.693 0.568,-0.6929 0.566,-0.6926 0.441,-0.5039 0.504,-0.6301 0.504,-0.6301 0.567,-0.6296 0.567,-0.693 0.567,-0.693 0.567,-0.7558 0.567,-0.6926 0.566,-0.7563 0.504,-0.6925 0.567,-0.6301 0.504,-0.693 0.504,-0.6297 0.504,-0.693 0.567,-0.7558 0.567,-0.693 0.567,-0.8187 0.567,-0.7559 0.63,-0.8191 0.567,-0.7559 0.504,-0.6926 0.503,-0.7558 0.504,-0.6301 0.504,-0.6301 0.441,-0.6297 0.441,-0.6301 0.441,-0.6296 0.504,-0.693 0.441,-0.693 0.504,-0.6297 0.441,-0.6929 0.441,-0.693 0.441,-0.6297 0.44,-0.5672 0.379,-0.6297 0.377,-0.5672 0.504,-0.6925 0.441,-0.693 0.504,-0.7559 0.504,-0.8191 0.504,-0.8187 0.567,-0.7559 0.441,-0.8188 0.504,-0.7558 0.441,-0.7559 0.441,-0.6929 0.377,-0.5668 0.379,-0.5672 0.378,-0.6297 0.377,-0.693 0.441,-0.693 0.441,-0.6929 0.441,-0.7559 0.441,-0.7558 0.378,-0.693 0.441,-0.7559 0.441,-0.7558 0.441,-0.7559 0.315,-0.6297 0.441,-0.6929 0.378,-0.7559 0.44,-0.7559 0.441,-0.882 0.441,-0.8187 0.504,-0.945 0.504,-0.8816 0.441,-0.9449 0.504,-0.8821 0.441,-0.8816 0.441,-0.882 0.378,-0.8188 0.441,-0.882 0.504,-0.9449 0.441,-1.0078 0.504,-1.0079 0.504,-1.0707 0.44,-1.0707 0.504,-1.0078 0.441,-1.0082 0.441,-0.9445 0.378,-0.8192 0.315,-0.7558 0.252,-0.6297 0.252,-0.5672 0.378,-0.8816 0.252,-0.5668 0.189,-0.441 0.063,-0.1891 0,-0.0629 0.063,0 0.189,0.0629 0.378,0.0629 0.504,0.1262 0.504,0.1257 0.566,0.1262 0.631,0.1891 0.755,0.1886 0.693,0.1262 0.63,0.1891 0.567,0.1258 0.504,0.1261 0.567,0.1258 0.315,0.1262 0.252,0.0629 0.126,0 -0.063,0.1258 -0.126,0.3152 -0.189,0.5039 -0.378,0.8816 -0.504,1.134 -0.315,0.5668 -0.315,0.693 -0.378,0.8187 -0.378,0.8821 -0.441,0.9449 -0.504,1.0707 -0.504,1.0707 -0.566,1.134 -0.567,1.1336 -0.504,1.0711 -0.567,1.1336 -0.504,1.0711 -0.504,1.0078 -0.504,0.9449 -0.441,0.9445 -0.504,0.9449 -0.504,1.0079 -0.504,0.9449 -0.504,0.9449 -0.504,1.0078 -0.566,0.9449 -0.504,0.945 -0.504,0.9445 -0.441,0.882 -0.504,0.8188 -0.441,0.8191 -0.378,0.7559 -0.441,0.6926 -0.378,0.7562 -0.441,0.6926 -0.441,0.7558 -0.441,0.7559 -0.441,0.7562 -0.441,0.8188 -0.504,0.8187 -0.44,0.8188 -0.504,0.7559 -0.504,0.8191 -0.441,0.7559 -0.504,0.7558 -0.441,0.7559 -0.441,0.6929 -0.504,0.7559 -0.504,0.7559 -0.504,0.8187 -0.566,0.8188 -0.568,0.882 -0.629,0.882 -0.63,0.9446 -0.567,0.882 -0.63,0.9449 -0.63,0.8188 -0.567,0.882 -0.567,0.7559 -0.567,0.7558 -0.504,0.7559 -0.629,0.8816 -0.63,0.8191 -0.631,0.8817 -0.629,0.882 -0.693,0.8817 -0.693,0.8191 -0.63,0.8816 -0.63,0.8192 -0.63,0.7558 -0.567,0.7559 -0.504,0.6297 -0.566,0.693 -0.504,0.63 -0.504,0.6297 -0.504,0.6301 -0.567,0.6297 -0.504,0.6301 -0.567,0.6929 -0.567,0.6297 -0.504,0.6301 -0.567,0.6297 -0.504,0.5668 -0.441,0.5672 -0.503,0.5668 -0.441,0.5039 -0.504,0.6301 -0.504,0.5668 -0.567,0.6296 -0.567,0.6301 -0.567,0.693 -0.567,0.6297 -0.567,0.6301 -0.567,0.6296 -0.567,0.6301 -0.504,0.5668 -0.503,0.5672 -0.504,0.5668 -0.567,0.5668 -0.567,0.6301 -0.567,0.6297 -0.63,0.63 -0.567,0.6297 -0.63,0.693 -0.63,0.6301 -0.629,0.6297 -0.568,0.5668 -0.566,0.5671 -0.567,0.5668 -0.567,0.5668 -0.567,0.5672 -0.567,0.5668 -0.63,0.6297 -0.63,0.5672 -0.693,0.63 -0.63,0.63 -0.63,0.629 -0.63,0.568 -0.566,0.566 -0.567,0.504 -0.567,0.441 -0.63,0.63 -0.63,0.567 -0.693,0.567 -0.693,0.63 -0.693,0.63 -0.693,0.63 -0.629,0.567 -0.693,0.566 -0.567,0.504 -0.63,0.504 -0.567,0.567 -0.63,0.504 -0.693,0.567 -0.63,0.567 -0.693,0.63 -0.756,0.567 -0.63,0.567 -0.692,0.566 -0.567,0.505 -0.63,0.44 -0.567,0.504 -0.63,0.441 -0.63,0.504 -0.63,0.567 -0.693,0.504 -0.693,0.504 -0.693,0.504 -0.629,0.504 -0.63,0.441 -0.63,0.504 -0.63,0.441 -0.63,0.503 -0.693,0.504 -0.756,0.504 -0.756,0.567 -0.755,0.567 -0.756,0.567 -0.756,0.504 -0.693,0.504 -0.693,0.504 -0.567,0.378 -0.63,0.441 -0.63,0.441 -0.63,0.441 -0.693,0.441 -0.692,0.503 -0.756,0.441 -0.693,0.504 -0.693,0.441 -0.63,0.441 -0.693,0.378 -0.567,0.441 -0.692,0.378 -0.631,0.441 -0.692,0.378 -0.693,0.441 -0.693,0.441 -0.756,0.504 -0.756,0.441 -0.693,0.441 -0.693,0.377 -0.693,0.378 -0.629,0.378 -0.568,0.378 -0.692,0.378 -0.756,0.441 -0.756,0.441 -0.819,0.441 -0.756,0.441 -0.819,0.504 -0.819,0.441 -0.756,0.378 -0.755,0.441 -0.756,0.378 -0.63,0.378 -0.693,0.377 -0.693,0.379 -0.756,0.377 -0.756,0.378 -0.818,0.441 -0.82,0.441 -0.818,0.378 -0.756,0.441 -0.756,0.378 -0.693,0.378 -0.693,0.315 -0.692,0.378 -0.757,0.378 -0.692,0.315 -0.756,0.378 -0.756,0.377 -0.756,0.379 -0.819,0.377 -0.693,0.378 -0.693,0.315 -0.693,0.315 -0.63,0.252 -0.566,0.315 -0.693,0.315 -0.756,0.315 -0.693,0.315 -0.756,0.315 -0.756,0.315 -0.756,0.315 -0.756,0.315 -0.693,0.315 -0.692,0.252 -0.63,0.315 -0.693,0.252 -0.693,0.314 -0.756,0.316 -0.756,0.314 -0.882,0.378 -0.819,0.315 -0.881,0.378 -0.819,0.315 -0.819,0.378 -0.756,0.315 -0.693,0.252 -0.756,0.252 -0.756,0.315 -0.756,0.315 -0.818,0.315 -0.882,0.315 -0.882,0.315 -0.882,0.315 -0.819,0.252 -0.882,0.315 -0.756,0.252 -0.819,0.315 -0.818,0.252 -0.819,0.252 -0.882,0.315 -0.945,0.314 -0.9449,0.315 -1.0078,0.315 -1.0078,0.252 -1.0707,0.315 -1.0078,0.315 -1.0078,0.315 -1.0082,0.252 -0.9446,0.252 -0.882,0.252 -0.9449,0.252 -0.945,0.252 -1.0078,0.252 -1.0707,0.252 -1.1336,0.252 -1.1339,0.315 -1.1969,0.252 -1.1969,0.252 -1.1969,0.315 -1.1965,0.251 -1.1968,0.252 -1.134,0.252 -1.1336,0.189 -1.0711,0.252 -1.0707,0.189 -1.0707,0.252 -1.134,0.189 -1.1969,0.252 -1.2597,0.189 -1.2598,0.252 -1.2598,0.252 -1.2597,0.189 -1.2598,0.252 -1.2598,0.189 -1.1968,0.252 -1.134,0.189 -1.1336,0.189 -1.0078,0.126 -1.0711,0.189 -1.0078,0.126 -1.0078,0.189 -1.0079,0.126 -1.0707,0.126 -1.0711,0.126 -1.1335,0.189 -1.0708,0.126 -1.1339,0.126 -1.134,0.126 -1.1336,0.063 -1.134,0.126 -1.1336,0.126 -1.0711,0.062 -1.0707,0.064 -1.0707,0.063 -1.0711,0.063 -0.9445,0.062 -1.0082,0.064 -1.0707,0 -1.0707,0.063 -1.134,0.063 -1.1336,0 -1.2598,0.062 -1.1968,0 -1.2598,0.064 -1.2598,0 -1.1969,0.063 -3.5906,0 -1.1336,0.062 -5.7953,0 -1.3226,0.063 -14.550822,0 0,-0.692" /><path
       inkscape:connector-curvature="0"
       id="path286"
       style="fill:none;stroke:#000000;stroke-width:0.47242498;stroke-linecap:butt;stroke-linejoin:bevel;stroke-miterlimit:10;stroke-opacity:1;stroke-dasharray:none"
       d="m 0.742578,170.409 0,-3.969 0.062891,-0.567 0,-1.7 2.078911,0 1.32265,0.063 1.32266,0 0.75586,0.063 1.88984,0 1.00781,0.063 1.1969,0 1.1969,0.063 5.291,0 1.323,0.063 1.3856,-0.063 5.1652,0 1.3227,-0.063 1.323,0 1.3855,-0.063 1.4489,-0.063 1.4488,-0.063 1.4488,0 1.5117,-0.063 1.4489,-0.063 1.4488,-0.126 1.3856,-0.063 1.323,-0.063 1.3227,-0.063 1.1968,-0.063 1.1336,-0.063 1.134,-0.126 1.0707,-0.063 1.0711,-0.063 1.1336,-0.126 1.0711,-0.063 1.1336,-0.126 1.0707,-0.126 1.0711,-0.126 1.0707,-0.126 1.134,-0.189 1.0707,-0.126 1.0707,-0.189 1.0711,-0.126 1.0078,-0.189 1.0707,-0.189 1.0078,-0.189 1.0078,-0.189 1.0707,-0.189 0.9449,-0.189 1.0078,-0.189 1.0711,-0.252 1.0707,-0.189 1.134,-0.252 1.1965,-0.252 1.1969,-0.252 1.2598,-0.252 1.2597,-0.314 1.2602,-0.252 1.2597,-0.252 1.2598,-0.315 1.1336,-0.252 1.1969,-0.252 1.0707,-0.252 1.0082,-0.252 1.0078,-0.252 0.9445,-0.252 1.0711,-0.252 1.0078,-0.252 0.945,-0.252 1.0078,-0.252 1.0078,-0.252 1.0078,-0.252 1.0078,-0.315 1.0078,-0.252 1.0078,-0.315 0.945,-0.252 1.0078,-0.314 0.8816,-0.316 0.9449,-0.252 0.8821,-0.315 0.8816,-0.314 0.9449,-0.315 0.8821,-0.315 0.945,-0.315 1.008,-0.315 1.007,-0.378 1.071,-0.378 1.134,-0.441 1.134,-0.378 1.134,-0.441 1.133,-0.441 1.071,-0.378 1.071,-0.441 1.071,-0.378 0.945,-0.377 0.882,-0.316 0.881,-0.314 0.82,-0.379 1.007,-0.377 1.008,-0.378 0.945,-0.378 0.945,-0.378 0.945,-0.441 0.882,-0.378 0.881,-0.315 0.819,-0.378 0.756,-0.378 0.756,-0.315 0.693,-0.315 0.693,-0.315 0.693,-0.315 0.693,-0.315 0.755,-0.377 0.756,-0.379 0.819,-0.377 0.819,-0.378 0.819,-0.441 0.819,-0.378 0.819,-0.441 0.756,-0.378 0.692,-0.378 0.693,-0.315 0.693,-0.378 0.756,-0.378 0.693,-0.378 0.756,-0.441 0.819,-0.378 0.756,-0.441 0.755,-0.377 0.756,-0.441 0.693,-0.379 0.693,-0.377 0.63,-0.315 0.63,-0.378 0.693,-0.378 0.756,-0.441 0.756,-0.378 0.755,-0.441 0.756,-0.504 0.819,-0.441 0.756,-0.441 0.693,-0.441 0.693,-0.441 0.693,-0.441 0.567,-0.315 0.63,-0.377 0.629,-0.441 0.693,-0.378 0.693,-0.504 0.693,-0.441 0.756,-0.504 0.693,-0.441 0.756,-0.504 0.693,-0.441 0.693,-0.504 0.693,-0.441 0.693,-0.441 0.692,-0.504 0.756,-0.504 0.819,-0.566 0.819,-0.567 0.819,-0.63 0.882,-0.567 0.818,-0.567 0.82,-0.567 0.755,-0.567 0.756,-0.567 0.756,-0.504 0.693,-0.503 0.693,-0.568 0.756,-0.566 0.819,-0.567 0.755,-0.567 0.819,-0.63 0.819,-0.63 0.819,-0.63 0.756,-0.567 0.693,-0.567 0.756,-0.567 0.692,-0.566 0.63,-0.568 0.756,-0.566 0.693,-0.567 0.819,-0.63 0.756,-0.693 0.819,-0.63 0.819,-0.693 0.819,-0.693 0.755,-0.63 0.756,-0.63 0.693,-0.629 0.693,-0.63 0.693,-0.63 0.693,-0.63 0.756,-0.693 0.756,-0.6931 0.756,-0.6926 0.756,-0.7559 0.755,-0.6929 0.756,-0.693 0.63,-0.6301 0.63,-0.6297 0.63,-0.5668 0.504,-0.5039 0.63,-0.5672 0.567,-0.6297 0.63,-0.5671 0.566,-0.5668 0.567,-0.5668 0.567,-0.5039 0.504,-0.504 0.504,-0.5039 0.441,-0.441 0.441,-0.5039 0.441,-0.441 0.441,-0.441 0.504,-0.5039 0.504,-0.5039 0.504,-0.5668 0.566,-0.5668 0.504,-0.5672 0.568,-0.5668 0.503,-0.5039 0.441,-0.5668 0.504,-0.5039 0.567,-0.5672 0.504,-0.6297 0.63,-0.6301 0.63,-0.6925 0.567,-0.693 0.63,-0.693 0.629,-0.693 0.568,-0.6929 0.566,-0.6926 0.441,-0.5039 0.504,-0.6301 0.504,-0.6301 0.567,-0.6296 0.567,-0.693 0.567,-0.693 0.567,-0.7558 0.567,-0.6926 0.566,-0.7563 0.504,-0.6925 0.567,-0.6301 0.504,-0.693 0.504,-0.6297 0.504,-0.693 0.567,-0.7558 0.567,-0.693 0.567,-0.8187 0.567,-0.7559 0.63,-0.8191 0.567,-0.7559 0.504,-0.6926 0.503,-0.7558 0.504,-0.6301 0.504,-0.6301 0.441,-0.6297 0.441,-0.6301 0.441,-0.6296 0.504,-0.693 0.441,-0.693 0.504,-0.6297 0.441,-0.6929 0.441,-0.693 0.441,-0.6297 0.44,-0.5672 0.379,-0.6297 0.377,-0.5672 0.504,-0.6925 0.441,-0.693 0.504,-0.7559 0.504,-0.8191 0.504,-0.8187 0.567,-0.7559 0.441,-0.8188 0.504,-0.7558 0.441,-0.7559 0.441,-0.6929 0.377,-0.5668 0.379,-0.5672 0.378,-0.6297 0.377,-0.693 0.441,-0.693 0.441,-0.6929 0.441,-0.7559 0.441,-0.7558 0.378,-0.693 0.441,-0.7559 0.441,-0.7558 0.441,-0.7559 0.315,-0.6297 0.441,-0.6929 0.378,-0.7559 0.44,-0.7559 0.441,-0.882 0.441,-0.8187 0.504,-0.945 0.504,-0.8816 0.441,-0.9449 0.504,-0.8821 0.441,-0.8816 0.441,-0.882 0.378,-0.8188 0.441,-0.882 0.504,-0.9449 0.441,-1.0078 0.504,-1.0079 0.504,-1.0707 0.44,-1.0707 0.504,-1.0078 0.441,-1.0082 0.441,-0.9445 0.378,-0.8192 0.315,-0.7558 0.252,-0.6297 0.252,-0.5672 0.378,-0.8816 0.252,-0.5668 0.189,-0.441 0.063,-0.1891 0,-0.0629 0.063,0 0.189,0.0629 0.378,0.0629 0.504,0.1262 0.504,0.1257 0.566,0.1262 0.631,0.1891 0.755,0.1886 0.693,0.1262 0.63,0.1891 0.567,0.1258 0.504,0.1261 0.567,0.1258 0.315,0.1262 0.252,0.0629 0.126,0 -0.063,0.1258 -0.126,0.3152 -0.189,0.5039 -0.378,0.8816 -0.504,1.134 -0.315,0.5668 -0.315,0.693 -0.378,0.8187 -0.378,0.8821 -0.441,0.9449 -0.504,1.0707 -0.504,1.0707 -0.566,1.134 -0.567,1.1336 -0.504,1.0711 -0.567,1.1336 -0.504,1.0711 -0.504,1.0078 -0.504,0.9449 -0.441,0.9445 -0.504,0.9449 -0.504,1.0079 -0.504,0.9449 -0.504,0.9449 -0.504,1.0078 -0.566,0.9449 -0.504,0.945 -0.504,0.9445 -0.441,0.882 -0.504,0.8188 -0.441,0.8191 -0.378,0.7559 -0.441,0.6926 -0.378,0.7562 -0.441,0.6926 -0.441,0.7558 -0.441,0.7559 -0.441,0.7562 -0.441,0.8188 -0.504,0.8187 -0.44,0.8188 -0.504,0.7559 -0.504,0.8191 -0.441,0.7559 -0.504,0.7558 -0.441,0.7559 -0.441,0.6929 -0.504,0.7559 -0.504,0.7559 -0.504,0.8187 -0.566,0.8188 -0.568,0.882 -0.629,0.882 -0.63,0.9446 -0.567,0.882 -0.63,0.9449 -0.63,0.8188 -0.567,0.882 -0.567,0.7559 -0.567,0.7558 -0.504,0.7559 -0.629,0.8816 -0.63,0.8191 -0.631,0.8817 -0.629,0.882 -0.693,0.8817 -0.693,0.8191 -0.63,0.8816 -0.63,0.8192 -0.63,0.7558 -0.567,0.7559 -0.504,0.6297 -0.566,0.693 -0.504,0.63 -0.504,0.6297 -0.504,0.6301 -0.567,0.6297 -0.504,0.6301 -0.567,0.6929 -0.567,0.6297 -0.504,0.6301 -0.567,0.6297 -0.504,0.5668 -0.441,0.5672 -0.503,0.5668 -0.441,0.5039 -0.504,0.6301 -0.504,0.5668 -0.567,0.6296 -0.567,0.6301 -0.567,0.693 -0.567,0.6297 -0.567,0.6301 -0.567,0.6296 -0.567,0.6301 -0.504,0.5668 -0.503,0.5672 -0.504,0.5668 -0.567,0.5668 -0.567,0.6301 -0.567,0.6297 -0.63,0.63 -0.567,0.6297 -0.63,0.693 -0.63,0.6301 -0.629,0.6297 -0.568,0.5668 -0.566,0.5671 -0.567,0.5668 -0.567,0.5668 -0.567,0.5672 -0.567,0.5668 -0.63,0.6297 -0.63,0.5672 -0.693,0.63 -0.63,0.63 -0.63,0.629 -0.63,0.568 -0.566,0.566 -0.567,0.504 -0.567,0.441 -0.63,0.63 -0.63,0.567 -0.693,0.567 -0.693,0.63 -0.693,0.63 -0.693,0.63 -0.629,0.567 -0.693,0.566 -0.567,0.504 -0.63,0.504 -0.567,0.567 -0.63,0.504 -0.693,0.567 -0.63,0.567 -0.693,0.63 -0.756,0.567 -0.63,0.567 -0.692,0.566 -0.567,0.505 -0.63,0.44 -0.567,0.504 -0.63,0.441 -0.63,0.504 -0.63,0.567 -0.693,0.504 -0.693,0.504 -0.693,0.504 -0.629,0.504 -0.63,0.441 -0.63,0.504 -0.63,0.441 -0.63,0.503 -0.693,0.504 -0.756,0.504 -0.756,0.567 -0.755,0.567 -0.756,0.567 -0.756,0.504 -0.693,0.504 -0.693,0.504 -0.567,0.378 -0.63,0.441 -0.63,0.441 -0.63,0.441 -0.693,0.441 -0.692,0.503 -0.756,0.441 -0.693,0.504 -0.693,0.441 -0.63,0.441 -0.693,0.378 -0.567,0.441 -0.692,0.378 -0.631,0.441 -0.692,0.378 -0.693,0.441 -0.693,0.441 -0.756,0.504 -0.756,0.441 -0.693,0.441 -0.693,0.377 -0.693,0.378 -0.629,0.378 -0.568,0.378 -0.692,0.378 -0.756,0.441 -0.756,0.441 -0.819,0.441 -0.756,0.441 -0.819,0.504 -0.819,0.441 -0.756,0.378 -0.755,0.441 -0.756,0.378 -0.63,0.378 -0.693,0.377 -0.693,0.379 -0.756,0.377 -0.756,0.378 -0.818,0.441 -0.82,0.441 -0.818,0.378 -0.756,0.441 -0.756,0.378 -0.693,0.378 -0.693,0.315 -0.692,0.378 -0.757,0.378 -0.692,0.315 -0.756,0.378 -0.756,0.377 -0.756,0.379 -0.819,0.377 -0.693,0.378 -0.693,0.315 -0.693,0.315 -0.63,0.252 -0.566,0.315 -0.693,0.315 -0.756,0.315 -0.693,0.315 -0.756,0.315 -0.756,0.315 -0.756,0.315 -0.756,0.315 -0.693,0.315 -0.692,0.252 -0.63,0.315 -0.693,0.252 -0.693,0.314 -0.756,0.316 -0.756,0.314 -0.882,0.378 -0.819,0.315 -0.881,0.378 -0.819,0.315 -0.819,0.378 -0.756,0.315 -0.693,0.252 -0.756,0.252 -0.756,0.315 -0.756,0.315 -0.818,0.315 -0.882,0.315 -0.882,0.315 -0.882,0.315 -0.819,0.252 -0.882,0.315 -0.756,0.252 -0.819,0.315 -0.818,0.252 -0.819,0.252 -0.882,0.315 -0.945,0.314 -0.9449,0.315 -1.0078,0.315 -1.0078,0.252 -1.0707,0.315 -1.0078,0.315 -1.0078,0.315 -1.0082,0.252 -0.9446,0.252 -0.882,0.252 -0.9449,0.252 -0.945,0.252 -1.0078,0.252 -1.0707,0.252 -1.1336,0.252 -1.1339,0.315 -1.1969,0.252 -1.1969,0.252 -1.1969,0.315 -1.1965,0.251 -1.1968,0.252 -1.134,0.252 -1.1336,0.189 -1.0711,0.252 -1.0707,0.189 -1.0707,0.252 -1.134,0.189 -1.1969,0.252 -1.2597,0.189 -1.2598,0.252 -1.2598,0.252 -1.2597,0.189 -1.2598,0.252 -1.2598,0.189 -1.1968,0.252 -1.134,0.189 -1.1336,0.189 -1.0078,0.126 -1.0711,0.189 -1.0078,0.126 -1.0078,0.189 -1.0079,0.126 -1.0707,0.126 -1.0711,0.126 -1.1335,0.189 -1.0708,0.126 -1.1339,0.126 -1.134,0.126 -1.1336,0.063 -1.134,0.126 -1.1336,0.126 -1.0711,0.062 -1.0707,0.064 -1.0707,0.063 -1.0711,0.063 -0.9445,0.062 -1.0082,0.064 -1.0707,0 -1.0707,0.063 -1.134,0.063 -1.1336,0 -1.2598,0.062 -1.1968,0 -1.2598,0.064 -1.2598,0 -1.1969,0.063 -3.5906,0 -1.1336,0.062 -5.7953,0 -1.3226,0.063 -14.550822,0 0,-0.692 0,-0.567 z" /><path
       inkscape:connector-curvature="0"
       id="path288"
       style="fill:#b2b2b2;fill-opacity:1;fill-rule:evenodd;stroke:none"
       d="m 176.044,174.188 1.26,5.039 22.991,-5.795 -1.071,-5.039" /><path
       inkscape:connector-curvature="0"
       id="path290"
       style="fill:none;stroke:#000000;stroke-width:0.47242498;stroke-linecap:butt;stroke-linejoin:miter;stroke-miterlimit:10;stroke-opacity:1;stroke-dasharray:none"
       d="m 176.044,174.188 1.26,5.039 22.991,-5.795 -1.071,-5.039 -23.18,5.795 z" /><path
       inkscape:connector-curvature="0"
       id="path292"
       style="fill:#b2b2b2;fill-opacity:1;fill-rule:evenodd;stroke:none"
       d="m 263.474,95.3246 2.835,4.2203 19.337,-14.2988 -3.149,-4.2832" /><path
       inkscape:connector-curvature="0"
       id="path294"
       style="fill:none;stroke:#000000;stroke-width:0.47242498;stroke-linecap:butt;stroke-linejoin:miter;stroke-miterlimit:10;stroke-opacity:1;stroke-dasharray:none"
       d="m 263.474,95.3246 2.835,4.2203 19.337,-14.2988 -3.149,-4.2832 -19.023,14.3617 z" /><path
       inkscape:connector-curvature="0"
       id="path296"
       style="fill:#b2b2b2;fill-opacity:1;fill-rule:evenodd;stroke:none"
       d="m 65.1812,213.872 -0.6296,4.598 23.18,3.591 0.945,-4.725" /><path
       inkscape:connector-curvature="0"
       id="path298"
       style="fill:none;stroke:#000000;stroke-width:0.47242498;stroke-linecap:butt;stroke-linejoin:miter;stroke-miterlimit:10;stroke-opacity:1;stroke-dasharray:none"
       d="m 65.1812,213.872 -0.6296,4.598 23.18,3.591 0.945,-4.725 -23.4954,-3.464 z" /><text
       id="text3770"
       transform="scale(1,-1)"
       x="382.18561"
       y="-67.11557"
       style="fill:#0000d1;fill-opacity:1"><tspan
         id="tspan3772"
         sodipodi:role="line"
         style="font-size:4px;font-variant:normal;font-weight:normal;writing-mode:lr-tb;fill:#0000d1;fill-opacity:1;fill-rule:nonzero;stroke:none;font-family:Helvetica;-inkscape-font-specification:Helvetica"
         x="382.18561"
         y="-67.11557">{\fontfamily{fds}</tspan><tspan
         sodipodi:role="line"
         style="font-size:4px;font-variant:normal;font-weight:normal;writing-mode:lr-tb;fill:#0000d1;fill-opacity:1;fill-rule:nonzero;stroke:none;font-family:Helvetica;-inkscape-font-specification:Helvetica"
         x="382.18561"
         y="-62.115574"
         id="tspan3774">\selectfont</tspan><tspan
         sodipodi:role="line"
         style="font-size:4px;font-variant:normal;font-weight:normal;writing-mode:lr-tb;fill:#0000d1;fill-opacity:1;fill-rule:nonzero;stroke:none;font-family:Helvetica;-inkscape-font-specification:Helvetica"
         x="382.18561"
         y="-57.115574"
         id="tspan3776">\footnotesize</tspan><tspan
         id="tspan3778"
         sodipodi:role="line"
         style="font-size:4px;font-variant:normal;font-weight:normal;writing-mode:lr-tb;fill:#0000d1;fill-opacity:1;fill-rule:nonzero;stroke:none;font-family:Helvetica;-inkscape-font-specification:Helvetica"
         x="382.18561"
         y="-52.115574">2a}</tspan></text>
<text
       y="-72.812843"
       x="340.98782"
       transform="scale(1,-1)"
       id="text3780"
       style="fill:#0000d1;fill-opacity:1"><tspan
         y="-72.812843"
         x="340.98782"
         style="font-size:4px;font-variant:normal;font-weight:normal;writing-mode:lr-tb;fill:#0000d1;fill-opacity:1;fill-rule:nonzero;stroke:none;font-family:Helvetica;-inkscape-font-specification:Helvetica"
         sodipodi:role="line"
         id="tspan3782">{\fontfamily{fds}</tspan><tspan
         id="tspan3784"
         y="-67.812843"
         x="340.98782"
         style="font-size:4px;font-variant:normal;font-weight:normal;writing-mode:lr-tb;fill:#0000d1;fill-opacity:1;fill-rule:nonzero;stroke:none;font-family:Helvetica;-inkscape-font-specification:Helvetica"
         sodipodi:role="line">\selectfont</tspan><tspan
         id="tspan3786"
         y="-62.812843"
         x="340.98782"
         style="font-size:4px;font-variant:normal;font-weight:normal;writing-mode:lr-tb;fill:#0000d1;fill-opacity:1;fill-rule:nonzero;stroke:none;font-family:Helvetica;-inkscape-font-specification:Helvetica"
         sodipodi:role="line">\footnotesize</tspan><tspan
         y="-57.812843"
         x="340.98782"
         style="font-size:4px;font-variant:normal;font-weight:normal;writing-mode:lr-tb;fill:#0000d1;fill-opacity:1;fill-rule:nonzero;stroke:none;font-family:Helvetica;-inkscape-font-specification:Helvetica"
         sodipodi:role="line"
         id="tspan3788">3c}</tspan></text>
<text
       id="text3790"
       transform="scale(1,-1)"
       x="360.76535"
       y="-52.416656"
       style="fill:#ff0707;fill-opacity:1"><tspan
         id="tspan3792"
         sodipodi:role="line"
         style="font-size:4px;font-variant:normal;font-weight:normal;writing-mode:lr-tb;fill:#ff0707;fill-opacity:1;fill-rule:nonzero;stroke:none;font-family:Helvetica;-inkscape-font-specification:Helvetica"
         x="360.76535"
         y="-52.416656">{\fontfamily{fds}</tspan><tspan
         sodipodi:role="line"
         style="font-size:4px;font-variant:normal;font-weight:normal;writing-mode:lr-tb;fill:#ff0707;fill-opacity:1;fill-rule:nonzero;stroke:none;font-family:Helvetica;-inkscape-font-specification:Helvetica"
         x="360.76535"
         y="-47.416656"
         id="tspan3794">\selectfont</tspan><tspan
         sodipodi:role="line"
         style="font-size:4px;font-variant:normal;font-weight:normal;writing-mode:lr-tb;fill:#ff0707;fill-opacity:1;fill-rule:nonzero;stroke:none;font-family:Helvetica;-inkscape-font-specification:Helvetica"
         x="360.76535"
         y="-42.416656"
         id="tspan3796">\footnotesize</tspan><tspan
         id="tspan3798"
         sodipodi:role="line"
         style="font-size:4px;font-variant:normal;font-weight:normal;writing-mode:lr-tb;fill:#ff0707;fill-opacity:1;fill-rule:nonzero;stroke:none;font-family:Helvetica;-inkscape-font-specification:Helvetica"
         x="360.76535"
         y="-37.416656">1 (EUV)}</tspan></text>
<text
       style="fill:#0000d1;fill-opacity:1"
       y="-62.037071"
       x="493.16736"
       transform="scale(1,-1)"
       id="text4587"><tspan
         y="-62.037071"
         x="493.16736"
         style="font-size:4px;font-variant:normal;font-weight:normal;writing-mode:lr-tb;fill:#0000d1;fill-opacity:1;fill-rule:nonzero;stroke:none;font-family:Helvetica;-inkscape-font-specification:Helvetica"
         sodipodi:role="line"
         id="tspan4589">{\fontfamily{fds}</tspan><tspan
         id="tspan4591"
         y="-57.037071"
         x="493.16736"
         style="font-size:4px;font-variant:normal;font-weight:normal;writing-mode:lr-tb;fill:#0000d1;fill-opacity:1;fill-rule:nonzero;stroke:none;font-family:Helvetica;-inkscape-font-specification:Helvetica"
         sodipodi:role="line">\selectfont</tspan><tspan
         id="tspan4593"
         y="-52.037071"
         x="493.16736"
         style="font-size:4px;font-variant:normal;font-weight:normal;writing-mode:lr-tb;fill:#0000d1;fill-opacity:1;fill-rule:nonzero;stroke:none;font-family:Helvetica;-inkscape-font-specification:Helvetica"
         sodipodi:role="line">\footnotesize</tspan><tspan
         y="-47.037071"
         x="493.16736"
         style="font-size:4px;font-variant:normal;font-weight:normal;writing-mode:lr-tb;fill:#0000d1;fill-opacity:1;fill-rule:nonzero;stroke:none;font-family:Helvetica;-inkscape-font-specification:Helvetica"
         sodipodi:role="line"
         id="tspan4595">3b}</tspan></text>
<text
       id="text4597"
       transform="scale(1,-1)"
       x="578.43573"
       y="-56.274677"
       style="fill:#0000d1;fill-opacity:1"><tspan
         id="tspan4599"
         sodipodi:role="line"
         style="font-size:4px;font-variant:normal;font-weight:normal;writing-mode:lr-tb;fill:#0000d1;fill-opacity:1;fill-rule:nonzero;stroke:none;font-family:Helvetica;-inkscape-font-specification:Helvetica"
         x="578.43573"
         y="-56.274677">{\fontfamily{fds}</tspan><tspan
         sodipodi:role="line"
         style="font-size:4px;font-variant:normal;font-weight:normal;writing-mode:lr-tb;fill:#0000d1;fill-opacity:1;fill-rule:nonzero;stroke:none;font-family:Helvetica;-inkscape-font-specification:Helvetica"
         x="578.43573"
         y="-51.274677"
         id="tspan4601">\selectfont</tspan><tspan
         sodipodi:role="line"
         style="font-size:4px;font-variant:normal;font-weight:normal;writing-mode:lr-tb;fill:#0000d1;fill-opacity:1;fill-rule:nonzero;stroke:none;font-family:Helvetica;-inkscape-font-specification:Helvetica"
         x="578.43573"
         y="-46.274677"
         id="tspan4603">\footnotesize</tspan><tspan
         id="tspan4605"
         sodipodi:role="line"
         style="font-size:4px;font-variant:normal;font-weight:normal;writing-mode:lr-tb;fill:#0000d1;fill-opacity:1;fill-rule:nonzero;stroke:none;font-family:Helvetica;-inkscape-font-specification:Helvetica"
         x="578.43573"
         y="-41.274677">4a}</tspan></text>
<text
       style="fill:#0000d1;fill-opacity:1"
       y="-25.20146"
       x="573.04944"
       transform="scale(1,-1)"
       id="text4607"><tspan
         y="-25.20146"
         x="573.04944"
         style="font-size:4px;font-variant:normal;font-weight:normal;writing-mode:lr-tb;fill:#0000d1;fill-opacity:1;fill-rule:nonzero;stroke:none;font-family:Helvetica;-inkscape-font-specification:Helvetica"
         sodipodi:role="line"
         id="tspan4609">{\fontfamily{fds}</tspan><tspan
         id="tspan4611"
         y="-20.20146"
         x="573.04944"
         style="font-size:4px;font-variant:normal;font-weight:normal;writing-mode:lr-tb;fill:#0000d1;fill-opacity:1;fill-rule:nonzero;stroke:none;font-family:Helvetica;-inkscape-font-specification:Helvetica"
         sodipodi:role="line">\selectfont</tspan><tspan
         id="tspan4613"
         y="-15.20146"
         x="573.04944"
         style="font-size:4px;font-variant:normal;font-weight:normal;writing-mode:lr-tb;fill:#0000d1;fill-opacity:1;fill-rule:nonzero;stroke:none;font-family:Helvetica;-inkscape-font-specification:Helvetica"
         sodipodi:role="line">\footnotesize</tspan><tspan
         y="-10.20146"
         x="573.04944"
         style="font-size:4px;font-variant:normal;font-weight:normal;writing-mode:lr-tb;fill:#0000d1;fill-opacity:1;fill-rule:nonzero;stroke:none;font-family:Helvetica;-inkscape-font-specification:Helvetica"
         sodipodi:role="line"
         id="tspan4615">3a}</tspan></text>
</g></svg>