<?xml version="1.0" encoding="UTF-8" standalone="no"?>
<!-- Created with matplotlib (http://matplotlib.org/) -->

<svg
   xmlns:dc="http://purl.org/dc/elements/1.1/"
   xmlns:cc="http://creativecommons.org/ns#"
   xmlns:rdf="http://www.w3.org/1999/02/22-rdf-syntax-ns#"
   xmlns:svg="http://www.w3.org/2000/svg"
   xmlns="http://www.w3.org/2000/svg"
   xmlns:sodipodi="http://sodipodi.sourceforge.net/DTD/sodipodi-0.dtd"
   xmlns:inkscape="http://www.inkscape.org/namespaces/inkscape"
   height="432pt"
   version="1.1"
   viewBox="0 0 576 432"
   width="576pt"
   id="svg13018"
   inkscape:version="0.48.5 r10040"
   sodipodi:docname="hurst_illustration.svg">
  <metadata
     id="metadata13337">
    <rdf:RDF>
      <cc:Work
         rdf:about="">
        <dc:format>image/svg+xml</dc:format>
        <dc:type
           rdf:resource="http://purl.org/dc/dcmitype/StillImage" />
        <dc:title />
      </cc:Work>
    </rdf:RDF>
  </metadata>
  <sodipodi:namedview
     pagecolor="#ffffff"
     bordercolor="#666666"
     borderopacity="1"
     objecttolerance="10"
     gridtolerance="10"
     guidetolerance="10"
     inkscape:pageopacity="0"
     inkscape:pageshadow="2"
     inkscape:window-width="1920"
     inkscape:window-height="1145"
     id="namedview13335"
     showgrid="false"
     showguides="true"
     inkscape:guide-bbox="true"
     inkscape:zoom="3.4962962"
     inkscape:cx="145.1628"
     inkscape:cy="379.09855"
     inkscape:window-x="-2"
     inkscape:window-y="-3"
     inkscape:window-maximized="1"
     inkscape:current-layer="svg13018">
    <sodipodi:guide
       orientation="1,0"
       position="335.72591,269.38971"
       id="guide13716" />
    <sodipodi:guide
       orientation="0,1"
       position="145.61606,91.414526"
       id="guide13718" />
    <sodipodi:guide
       orientation="1,0"
       position="174.73927,375.36584"
       id="guide19149" />
    <sodipodi:guide
       orientation="0,1"
       position="286.37825,329.25409"
       id="guide9014" />
    <sodipodi:guide
       orientation="0,1"
       position="293.65905,454.64569"
       id="guide9016" />
  </sodipodi:namedview>
  <defs
     id="defs13020">
    <marker
       inkscape:stockid="Arrow2Sstart"
       orient="auto"
       refY="0.0"
       refX="0.0"
       id="Arrow2Sstart"
       style="overflow:visible">
      <path
         id="path4297"
         style="fill-rule:evenodd;stroke-width:0.62500000;stroke-linejoin:round"
         d="M 8.7185878,4.0337352 L -2.2072895,0.016013256 L 8.7185884,-4.0017078 C 6.9730900,-1.6296469 6.9831476,1.6157441 8.7185878,4.0337352 z "
         transform="scale(0.3) translate(-2.3,0)" />
    </marker>
    <marker
       style="overflow:visible"
       id="DistanceEnd"
       refX="0.0"
       refY="0.0"
       orient="auto"
       inkscape:stockid="DistanceEnd">
      <g
         id="g2301">
        <path
           style="fill:none;stroke:#ffffff;stroke-width:1.15;stroke-linecap:square"
           d="M 0,0 L -2,0"
           id="path2316" />
        <path
           style="fill:#000000;fill-rule:evenodd;stroke:none"
           d="M 0,0 L -13,4 L -9,0 -13,-4 L 0,0 z "
           id="path2312" />
        <path
           style="fill:none;stroke:#000000;stroke-width:1;stroke-linecap:square"
           d="M 0,-4 L 0,40"
           id="path2314" />
      </g>
    </marker>
    <marker
       style="overflow:visible"
       id="DistanceStart"
       refX="0.0"
       refY="0.0"
       orient="auto"
       inkscape:stockid="DistanceStart">
      <g
         id="g2300">
        <path
           style="fill:none;stroke:#ffffff;stroke-width:1.15;stroke-linecap:square"
           d="M 0,0 L 2,0"
           id="path2306" />
        <path
           style="fill:#000000;fill-rule:evenodd;stroke:none"
           d="M 0,0 L 13,4 L 9,0 13,-4 L 0,0 z "
           id="path2302" />
        <path
           style="fill:none;stroke:#000000;stroke-width:1;stroke-linecap:square"
           d="M 0,-4 L 0,40"
           id="path2304" />
      </g>
    </marker>
    <marker
       inkscape:stockid="Arrow1Mstart"
       orient="auto"
       refY="0.0"
       refX="0.0"
       id="Arrow1Mstart"
       style="overflow:visible">
      <path
         id="path9362"
         d="M 0.0,0.0 L 5.0,-5.0 L -12.5,0.0 L 5.0,5.0 L 0.0,0.0 z "
         style="fill-rule:evenodd;stroke:#000000;stroke-width:1.0pt"
         transform="scale(0.4) translate(10,0)" />
    </marker>
    <marker
       inkscape:stockid="Arrow1Mend"
       orient="auto"
       refY="0.0"
       refX="0.0"
       id="Arrow1Mend"
       style="overflow:visible;">
      <path
         id="path3868"
         d="M 0.0,0.0 L 5.0,-5.0 L -12.5,0.0 L 5.0,5.0 L 0.0,0.0 z "
         style="fill-rule:evenodd;stroke:#000000;stroke-width:1.0pt;"
         transform="scale(0.4) rotate(180) translate(10,0)" />
    </marker>
    <inkscape:path-effect
       effect="skeletal"
       id="path-effect18733"
       is_visible="true"
       pattern="M 0,5 C 0,2.24 2.24,0 5,0 7.76,0 10,2.24 10,5 10,7.76 7.76,10 5,10 2.24,10 0,7.76 0,5 z"
       copytype="single_stretched"
       prop_scale="1"
       scale_y_rel="false"
       spacing="0"
       normal_offset="0"
       tang_offset="0"
       prop_units="false"
       vertical_pattern="false"
       fuse_tolerance="0" />
    <inkscape:path-effect
       effect="spiro"
       id="path-effect18731"
       is_visible="true" />
    <inkscape:path-effect
       effect="skeletal"
       id="path-effect18727"
       is_visible="true"
       pattern="M 0,5 C 0,2.24 2.24,0 5,0 7.76,0 10,2.24 10,5 10,7.76 7.76,10 5,10 2.24,10 0,7.76 0,5 z"
       copytype="single_stretched"
       prop_scale="1"
       scale_y_rel="false"
       spacing="0"
       normal_offset="0"
       tang_offset="0"
       prop_units="false"
       vertical_pattern="false"
       fuse_tolerance="0" />
    <inkscape:path-effect
       effect="spiro"
       id="path-effect18725"
       is_visible="true" />
    <marker
       inkscape:stockid="Arrow1Lend"
       orient="auto"
       refY="0.0"
       refX="0.0"
       id="Arrow1Lend"
       style="overflow:visible;">
      <path
         id="path3862"
         d="M 0.0,0.0 L 5.0,-5.0 L -12.5,0.0 L 5.0,5.0 L 0.0,0.0 z "
         style="fill-rule:evenodd;stroke:#000000;stroke-width:1.0pt;"
         transform="scale(0.8) rotate(180) translate(12.5,0)" />
    </marker>
    <marker
       inkscape:stockid="Arrow1Lstart"
       orient="auto"
       refY="0.0"
       refX="0.0"
       id="Arrow1Lstart"
       style="overflow:visible">
      <path
         id="path3859"
         d="M 0.0,0.0 L 5.0,-5.0 L -12.5,0.0 L 5.0,5.0 L 0.0,0.0 z "
         style="fill-rule:evenodd;stroke:#000000;stroke-width:1.0pt"
         transform="scale(0.8) translate(12.5,0)" />
    </marker>
    <marker
       inkscape:stockid="Arrow1Send"
       orient="auto"
       refY="0.0"
       refX="0.0"
       id="Arrow1Send"
       style="overflow:visible;">
      <path
         id="path3874"
         d="M 0.0,0.0 L 5.0,-5.0 L -12.5,0.0 L 5.0,5.0 L 0.0,0.0 z "
         style="fill-rule:evenodd;stroke:#000000;stroke-width:1.0pt;"
         transform="scale(0.2) rotate(180) translate(6,0)" />
    </marker>
    <marker
       inkscape:stockid="Arrow2Send"
       orient="auto"
       refY="0.0"
       refX="0.0"
       id="Arrow2Send"
       style="overflow:visible;">
      <path
         id="path3892"
         style="fill-rule:evenodd;stroke-width:0.62500000;stroke-linejoin:round;"
         d="M 8.7185878,4.0337352 L -2.2072895,0.016013256 L 8.7185884,-4.0017078 C 6.9730900,-1.6296469 6.9831476,1.6157441 8.7185878,4.0337352 z "
         transform="scale(0.3) rotate(180) translate(-2.3,0)" />
    </marker>
    <marker
       inkscape:stockid="Arrow1Sstart"
       orient="auto"
       refY="0.0"
       refX="0.0"
       id="Arrow1Sstart"
       style="overflow:visible">
      <path
         id="path3871"
         d="M 0.0,0.0 L 5.0,-5.0 L -12.5,0.0 L 5.0,5.0 L 0.0,0.0 z "
         style="fill-rule:evenodd;stroke:#000000;stroke-width:1.0pt"
         transform="scale(0.2) translate(6,0)" />
    </marker>
    <style
       type="text/css"
       id="style13022">
*{stroke-linecap:butt;stroke-linejoin:round;}
  </style>
    <marker
       style="overflow:visible"
       id="Arrow2Mstart"
       refX="0"
       refY="0"
       orient="auto"
       inkscape:stockid="Arrow2Mstart">
      <path
         inkscape:connector-curvature="0"
         transform="scale(0.6,0.6)"
         d="M 8.7185878,4.0337352 -2.2072895,0.01601326 8.7185884,-4.0017078 c -1.7454984,2.3720609 -1.7354408,5.6174519 -6e-7,8.035443 z"
         style="fill-rule:evenodd;stroke-width:0.625;stroke-linejoin:round"
         id="path3791" />
    </marker>
    <marker
       style="overflow:visible"
       id="Arrow1MstartSw"
       refX="0"
       refY="0"
       orient="auto"
       inkscape:stockid="Arrow1MstartSw">
      <path
         inkscape:connector-curvature="0"
         transform="matrix(0.4,0,0,0.4,4,0)"
         style="fill:#348abd;fill-rule:evenodd;stroke:#348abd;stroke-width:1pt"
         d="M 0,0 5,-5 -12.5,0 5,5 0,0 z"
         id="path10977" />
    </marker>
    <marker
       style="overflow:visible"
       id="marker7809"
       refX="0"
       refY="0"
       orient="auto"
       inkscape:stockid="Arrow1MstartSw">
      <path
         inkscape:connector-curvature="0"
         transform="matrix(0.4,0,0,0.4,4,0)"
         style="fill:#348abd;fill-rule:evenodd;stroke:#348abd;stroke-width:1pt"
         d="M 0,0 5,-5 -12.5,0 5,5 0,0 z"
         id="path7811" />
    </marker>
    <marker
       style="overflow:visible"
       id="Arrow1MstartSL"
       refX="0"
       refY="0"
       orient="auto"
       inkscape:stockid="Arrow1MstartSL">
      <path
         inkscape:connector-curvature="0"
         transform="matrix(0.4,0,0,0.4,4,0)"
         style="fill:#000000;fill-rule:evenodd;stroke:#000000;stroke-width:1pt"
         d="M 0,0 5,-5 -12.5,0 5,5 0,0 z"
         id="path5323" />
    </marker>
    <marker
       style="overflow:visible"
       id="Arrow1MstartSLu"
       refX="0"
       refY="0"
       orient="auto"
       inkscape:stockid="Arrow1MstartSLu">
      <path
         inkscape:connector-curvature="0"
         transform="matrix(0.4,0,0,0.4,4,0)"
         style="fill:#7d7d7d;fill-rule:evenodd;stroke:#7d7d7d;stroke-width:1pt"
         d="M 0,0 5,-5 -12.5,0 5,5 0,0 z"
         id="path6554" />
    </marker>
    <marker
       style="overflow:visible"
       id="Arrow1MstartSLT"
       refX="0"
       refY="0"
       orient="auto"
       inkscape:stockid="Arrow1MstartSLT">
      <path
         inkscape:connector-curvature="0"
         transform="matrix(0.4,0,0,0.4,4,0)"
         style="fill:#7d7d7d;fill-rule:evenodd;stroke:#7d7d7d;stroke-width:1pt"
         d="M 0,0 5,-5 -12.5,0 5,5 0,0 z"
         id="path6551" />
    </marker>
    <marker
       style="overflow:visible"
       id="Arrow1MstartSLv"
       refX="0"
       refY="0"
       orient="auto"
       inkscape:stockid="Arrow1MstartSLv">
      <path
         inkscape:connector-curvature="0"
         transform="matrix(0.4,0,0,0.4,4,0)"
         style="fill:#7d7d7d;fill-rule:evenodd;stroke:#7d7d7d;stroke-width:1pt"
         d="M 0,0 5,-5 -12.5,0 5,5 0,0 z"
         id="path6548" />
    </marker>
    <marker
       style="overflow:visible"
       id="Arrow1MstartSLE"
       refX="0"
       refY="0"
       orient="auto"
       inkscape:stockid="Arrow1MstartSLE">
      <path
         inkscape:connector-curvature="0"
         transform="matrix(0.4,0,0,0.4,4,0)"
         style="fill:#7d7d7d;fill-rule:evenodd;stroke:#7d7d7d;stroke-width:1pt"
         d="M 0,0 5,-5 -12.5,0 5,5 0,0 z"
         id="path6545" />
    </marker>
    <marker
       style="overflow:visible"
       id="Arrow1MstartSLp"
       refX="0"
       refY="0"
       orient="auto"
       inkscape:stockid="Arrow1MstartSLp">
      <path
         inkscape:connector-curvature="0"
         transform="matrix(0.4,0,0,0.4,4,0)"
         style="fill:#7d7d7d;fill-rule:evenodd;stroke:#7d7d7d;stroke-width:1pt"
         d="M 0,0 5,-5 -12.5,0 5,5 0,0 z"
         id="path6939" />
    </marker>
    <marker
       style="overflow:visible"
       id="Arrow1MstartSwU"
       refX="0"
       refY="0"
       orient="auto"
       inkscape:stockid="Arrow1MstartSwU">
      <path
         inkscape:connector-curvature="0"
         transform="matrix(0.4,0,0,0.4,4,0)"
         style="fill:#7d7d7d;fill-rule:evenodd;stroke:#7d7d7d;stroke-width:1pt"
         d="M 0,0 5,-5 -12.5,0 5,5 0,0 z"
         id="path6223" />
    </marker>
    <marker
       style="overflow:visible"
       id="Arrow1MstartSwEK"
       refX="0"
       refY="0"
       orient="auto"
       inkscape:stockid="Arrow1MstartSwEK">
      <path
         inkscape:connector-curvature="0"
         transform="matrix(0.4,0,0,0.4,4,0)"
         style="fill:#7d7d7d;fill-rule:evenodd;stroke:#7d7d7d;stroke-width:1pt"
         d="M 0,0 5,-5 -12.5,0 5,5 0,0 z"
         id="path6232" />
    </marker>
    <marker
       style="overflow:visible"
       id="Arrow1MstartSwT"
       refX="0"
       refY="0"
       orient="auto"
       inkscape:stockid="Arrow1MstartSwT">
      <path
         inkscape:connector-curvature="0"
         transform="matrix(0.4,0,0,0.4,4,0)"
         style="fill:#7d7d7d;fill-rule:evenodd;stroke:#7d7d7d;stroke-width:1pt"
         d="M 0,0 5,-5 -12.5,0 5,5 0,0 z"
         id="path6226" />
    </marker>
    <marker
       style="overflow:visible"
       id="marker7831"
       refX="0"
       refY="0"
       orient="auto"
       inkscape:stockid="Arrow1MstartSw">
      <path
         inkscape:connector-curvature="0"
         transform="matrix(0.4,0,0,0.4,4,0)"
         style="fill:#348abd;fill-rule:evenodd;stroke:#348abd;stroke-width:1pt"
         d="M 0,0 5,-5 -12.5,0 5,5 0,0 z"
         id="path7833" />
    </marker>
    <marker
       style="overflow:visible"
       id="marker7835"
       refX="0"
       refY="0"
       orient="auto"
       inkscape:stockid="Arrow1MstartSw">
      <path
         inkscape:connector-curvature="0"
         transform="matrix(0.4,0,0,0.4,4,0)"
         style="fill:#348abd;fill-rule:evenodd;stroke:#348abd;stroke-width:1pt"
         d="M 0,0 5,-5 -12.5,0 5,5 0,0 z"
         id="path7837" />
    </marker>
    <marker
       style="overflow:visible"
       id="marker7839"
       refX="0"
       refY="0"
       orient="auto"
       inkscape:stockid="Arrow1MstartSw">
      <path
         inkscape:connector-curvature="0"
         transform="matrix(0.4,0,0,0.4,4,0)"
         style="fill:#348abd;fill-rule:evenodd;stroke:#348abd;stroke-width:1pt"
         d="M 0,0 5,-5 -12.5,0 5,5 0,0 z"
         id="path7841" />
    </marker>
    <marker
       style="overflow:visible"
       id="marker7843"
       refX="0"
       refY="0"
       orient="auto"
       inkscape:stockid="Arrow1MstartSw">
      <path
         inkscape:connector-curvature="0"
         transform="matrix(0.4,0,0,0.4,4,0)"
         style="fill:#348abd;fill-rule:evenodd;stroke:#348abd;stroke-width:1pt"
         d="M 0,0 5,-5 -12.5,0 5,5 0,0 z"
         id="path7845" />
    </marker>
    <filter
       inkscape:label="Soft focus lens"
       inkscape:menu="Image effects"
       inkscape:menu-tooltip="Glowing image content without blurring it"
       height="1"
       y="0"
       width="1"
       x="0"
       color-interpolation-filters="sRGB"
       id="filter8934">
      <feGaussianBlur
         stdDeviation="5"
         result="result3"
         id="feGaussianBlur8936" />
      <feComposite
         in2="result3"
         operator="arithmetic"
         in="result3"
         k1="0.5"
         k3="0.5"
         result="result1"
         id="feComposite8938" />
      <feBlend
         in2="result1"
         result="result5"
         mode="screen"
         in="SourceGraphic"
         id="feBlend8940" />
      <feBlend
         mode="darken"
         in="result5"
         result="result6"
         in2="result5"
         id="feBlend8942" />
      <feComposite
         operator="in"
         in2="SourceGraphic"
         id="feComposite8944" />
    </filter>
  </defs>
  <defs
     id="defs13330">
    <clipPath
       id="p7ff5b81e1d">
      <rect
         height="345.6"
         width="446.4"
         x="72.0"
         y="43.2"
         id="rect13333" />
    </clipPath>
  </defs>
  <g
     id="line2d_6"
     style="stroke-width:1.60000002;stroke-linecap:butt;stroke-linejoin:round;stroke-miterlimit:4;stroke-dasharray:none"
     transform="matrix(0.54783858,0,0,0.54783858,-14.363755,-5.3090606)" />
  <g
     style="stroke-width:1.60000002;stroke-linecap:butt;stroke-linejoin:round;stroke-miterlimit:4;stroke-dasharray:none"
     id="g7564"
     transform="matrix(0.54783858,0,0,0.54783858,-13.691112,183.51119)" />
  <rect
     y="108.5629"
     x="82.856575"
     height="47.70298"
     width="146.33476"
     id="rect4146"
     style="fill:#e8e8e8;fill-opacity:1;fill-rule:evenodd;stroke:none" />
  <rect
     style="fill:#e8e8e8;fill-opacity:1;fill-rule:evenodd;stroke:none"
     id="rect9561"
     width="146.33476"
     height="19.209345"
     x="82.856575"
     y="94.330734" />
  <path
     sodipodi:nodetypes="cccccccccccccccccccccccccccccccccccccccccccccccccccccccccccccccccccc"
     inkscape:connector-curvature="0"
     id="path10178"
     d="m 82.856571,149.96134 3.65936,3.4322 0.9136,-3.4322 8.464449,-4.80509 -0.230471,2.63136 -3.433864,2.51695 4.002579,0.11441 0.799193,3.31779 c 2.020637,-1.44915 1.75314,3.49731 3.773773,-2.74576 l 0.79921,-3.4322 1.60003,7.77966 1.48563,-12.69915 0.68479,8.00847 6.40512,-5.26271 1.028,4.23305 c 9.87894,-4.04877 1.42072,-2.69154 4.46022,2.17373 1.28447,-1.29661 1.8538,-2.59322 4.23139,-3.88983 l 1.14242,2.97457 1.60003,-5.37712 2.40089,4.23306 1.82886,3.66101 3.08733,-5.94915 1.48563,5.49153 4.80343,-5.37712 2.17209,0.45762 0.91359,5.14831 3.20174,-5.94915 2.85851,-0.57204 -1.14572,5.94916 3.08732,-2.51696 4.46022,-7.55084 c -0.17373,3.92901 -1.23496,8.44969 2.05766,10.0678 3.13401,-1.51891 2.3134,-3.60277 1.25682,-5.72034 l 3.08733,2.28813 1.94326,-1.60169 c -1.11628,2.00435 -3.21702,4.44624 0.9136,4.11864 l 2.51529,0.91526 2.17207,-4.34746 c 7.06708,-6.34748 6.89324,-3.47964 3.08733,4.69068 l 3.54496,-0.91526 c 2.37241,-7.79286 2.69709,-3.29927 3.31615,-0.57203 l 1.48563,1.25847 1.14241,-3.54661 c -2.77222,-3.47795 -2.66192,-4.89695 3.08733,-2.28813 l 2.40089,1.48729 1.94325,0.80084 c 2.38237,-0.67837 7.768,-3.75935 1.60004,2.40254 l 1.94326,0 2.6297,1.37289 c -1.5947,-4.56495 0.56688,-3.49549 1.14242,-4.80509 l 1.71444,2.17373 c 4.82231,-5.40675 3.92632,-1.28299 3.43055,2.17373 l 2.85851,-0.91526 c 0.87657,5.22464 1.75313,3.61414 2.6297,-2.74576 l 3.54496,-0.45762 c 5.64272,-7.08561 1.84681,0.77328 0.68478,4.46186 l 1.94327,-1.37288 1.71445,-1.48729 1.60004,-2.97458 2.17207,5.49153 1.94326,-4.69068 3.31614,5.72034 3.31614,-0.80085 0.9136,-4.00423 2.74411,1.25847 0,18.59021 -146.334769,0 z"
     style="fill:#b4b4b4;fill-opacity:1;fill-rule:evenodd;stroke:none" />
  <path
     style="fill:#b4b4b4;fill-opacity:1;fill-rule:evenodd;stroke:none"
     d="m 82.856561,113.46921 c 21.553429,-0.10505 18.018649,1.1995 32.697169,2.74576 6.21075,-6.73671 7.171,-6.74689 17.14778,-0.68644 l 5.71703,-7.09322 c 5.90337,-1.10967 5.82953,-0.78992 10.06118,2.97458 12.86882,6.94803 17.1274,-0.45417 20.34454,5.49152 8.70643,-6.79986 10.65854,-8.28914 18.75279,-2.05932 5.99545,1.46853 5.41518,0.74203 9.37474,-3.66102 3.73256,1.23582 6.25064,0.61767 9.83236,-0.45762 3.98146,5.89985 2.82192,6.45491 9.37474,5.26271 8.73944,-7.68899 2.85052,0.53983 13.03244,-2.51695 l 0,0.58319 0,0.58318 0,0.58319 0,0.58319 0,0.58319 0,0.58318 0,0.58319 0,0.58319 0,0.58318 0,0.58319 0,0.58319 0,0.58319 0,0.58318 0,0.58319 0,0.58319 0,0.58318 0,0.58319 0,0.58319 0,0.58319 0,0.58318 0,0.58319 0,0.58319 0,0.58319 0,0.58318 0,0.58319 0,0.58319 0,0.58318 0,0.58319 0,0.58319 0,0.58319 0,0.58318 0,0.58319 -4.34415,2.28814 -6.86109,-1.6017 -2.97127,-4.11864 -5.48822,2.05932 -4.11533,-1.6017 -6.17466,1.14407 -2.74245,2.97458 -3.88652,0 -3.20008,-4.80509 -5.94584,0.22882 -7.77635,0.91525 -2.97127,2.74576 c 0.4496,1.5352 -3.35051,0.29177 -5.94584,1e-5 -6.98436,0.68496 -5.43154,1.95632 -9.37474,-2.51696 l -3.65771,2.05933 -3.6577,-2.51696 -4.11533,2.28814 -6.17136,0.0338 -3.20339,-1.63545 -4.80178,2.28814 -5.94584,2.28813 -2.74245,-0.45763 c -7.50564,-8.81943 -4.49881,-0.95491 -7.54754,-3.20338 -2.66769,3.31664 -3.84208,4.35268 -7.77304,3.88982 l -3.65771,-3.20338 -4.572969,-1.83052 -2.056012,5.26272 -5.717018,0.45762 -4.34415,-3.4322 -4.57296,0 0,-0.58319 0,-0.58318 0,-0.58319 0,-0.58319 0,-0.58319 0,-0.58318 0,-0.58319 0,-0.58319 0,-0.58318 0,-0.58319 0,-0.58319 0,-0.58319 0,-0.58318 0,-0.58319 0,-0.58319 0,-0.58319 0,-0.58318 0,-0.58319 0,-0.58319 0,-0.58318 0,-0.58319 0,-0.58319 0,-0.58319 0,-0.58318 0,-0.58319 0,-0.58319 0,-0.58318 0,-0.58319 0,-0.58319 0,-0.58319 0,-0.58318 z"
     id="rect11504"
     inkscape:connector-curvature="0"
     sodipodi:nodetypes="ccccccccccccccccccccccccccccccccccccccccccccccccccccccccccccccccccccccccccccccccccccccccccccccccccccccccc" />
  <text
     sodipodi:linespacing="125%"
     id="text9917"
     y="82.998535"
     x="81.331337"
     style="font-size:6.72133636px;font-style:normal;font-variant:normal;font-weight:normal;font-stretch:normal;text-align:start;line-height:125%;letter-spacing:0px;word-spacing:0px;writing-mode:lr-tb;text-anchor:start;fill:#000000;fill-opacity:1;stroke:none;font-family:Sans;-inkscape-font-specification:Sans"
     xml:space="preserve"><tspan
       y="82.998535"
       x="81.331337"
       sodipodi:role="line"
       id="tspan9925">$z$</tspan></text>
  <path
     style="fill:none;stroke:#000000;stroke-width:0.80000001;stroke-linecap:butt;stroke-linejoin:miter;stroke-miterlimit:4;stroke-opacity:1;stroke-dasharray:none;marker-start:url(#Arrow2Mstart);marker-end:none"
     d="m 82.363211,87.118432 0,81.478298"
     id="path6700"
     inkscape:connector-curvature="0"
     sodipodi:nodetypes="cc" />
  <path
     style="fill:none;stroke:#000000;stroke-width:0.79999995;stroke-linecap:butt;stroke-linejoin:miter;stroke-miterlimit:4;stroke-opacity:1;stroke-dasharray:none;marker-start:url(#Arrow1Mstart);marker-end:url(#Arrow1Mend)"
     d="m 164.9546,111.20073 0,36.71624"
     id="path10184"
     inkscape:connector-curvature="0"
     sodipodi:nodetypes="cc" />
  <text
     sodipodi:linespacing="125%"
     id="text10198"
     y="104.0896"
     x="140.7513"
     style="font-size:3.20000005px;font-style:normal;font-variant:normal;font-weight:normal;font-stretch:normal;text-align:start;line-height:125%;letter-spacing:0px;word-spacing:0px;writing-mode:lr-tb;text-anchor:start;fill:#000000;fill-opacity:1;stroke:none;font-family:Sans;-inkscape-font-specification:Sans"
     xml:space="preserve"><tspan
       id="tspan10200"
       y="104.0896"
       x="140.7513"
       sodipodi:role="line">{\fontfamily{fds}</tspan><tspan
       id="tspan10202"
       y="108.0896"
       x="140.7513"
       sodipodi:role="line">\selectfont</tspan><tspan
       id="tspan10204"
       y="112.0896"
       x="140.7513"
       sodipodi:role="line">\footnotesize</tspan><tspan
       id="tspan10206"
       y="116.0896"
       x="140.7513"
       sodipodi:role="line">high $H \leq 1$}</tspan></text>
  <flowRoot
     xml:space="preserve"
     id="flowRoot11410"
     style="fill:black;stroke:none;stroke-opacity:1;stroke-width:1px;stroke-linejoin:miter;stroke-linecap:butt;fill-opacity:1;font-family:Sans;font-style:normal;font-weight:normal;font-size:20px;line-height:125%;letter-spacing:0px;word-spacing:0px"><flowRegion
       id="flowRegion11412"><rect
         id="rect11414"
         width="305.46609"
         height="424.44916"
         x="4.5762711"
         y="41.186436"
         style="stroke-linecap:butt;stroke-linejoin:round" /></flowRegion><flowPara
       id="flowPara11416" /></flowRoot>  <text
     xml:space="preserve"
     style="font-size:3.20000005px;font-style:normal;font-variant:normal;font-weight:normal;font-stretch:normal;text-align:start;line-height:125%;letter-spacing:0px;word-spacing:0px;writing-mode:lr-tb;text-anchor:start;fill:#000000;fill-opacity:1;stroke:none;font-family:Sans;-inkscape-font-specification:Sans"
     x="143.03604"
     y="161.28624"
     id="text3296"
     sodipodi:linespacing="125%"><tspan
       sodipodi:role="line"
       x="143.03604"
       y="161.28624"
       id="tspan3298">{\fontfamily{fds}</tspan><tspan
       sodipodi:role="line"
       x="143.03604"
       y="165.28624"
       id="tspan3300">\selectfont</tspan><tspan
       sodipodi:role="line"
       x="143.03604"
       y="169.28624"
       id="tspan3302">\footnotesize</tspan><tspan
       sodipodi:role="line"
       x="143.03604"
       y="173.28624"
       id="tspan3304">low $H \geq 0$}</tspan></text>
</svg>
