<?xml version="1.0" encoding="UTF-8" standalone="no"?>
<!-- Created with Inkscape (http://www.inkscape.org/) -->

<svg
   xmlns:dc="http://purl.org/dc/elements/1.1/"
   xmlns:cc="http://creativecommons.org/ns#"
   xmlns:rdf="http://www.w3.org/1999/02/22-rdf-syntax-ns#"
   xmlns:svg="http://www.w3.org/2000/svg"
   xmlns="http://www.w3.org/2000/svg"
   xmlns:sodipodi="http://sodipodi.sourceforge.net/DTD/sodipodi-0.dtd"
   xmlns:inkscape="http://www.inkscape.org/namespaces/inkscape"
   id="svg3178"
   version="1.1"
   inkscape:version="0.48.5 r10040"
   width="743.75"
   height="1052.5"
   xml:space="preserve"
   sodipodi:docname="sx700_scheme.svg"><metadata
     id="metadata3184"><rdf:RDF><cc:Work
         rdf:about=""><dc:format>image/svg+xml</dc:format><dc:type
           rdf:resource="http://purl.org/dc/dcmitype/StillImage" /><dc:title></dc:title></cc:Work></rdf:RDF></metadata><defs
     id="defs3182"><clipPath
       clipPathUnits="userSpaceOnUse"
       id="clipPath3196"><path
         d="M 0,0 595,0 595,842 0,842 0,0 z"
         id="path3198" /></clipPath><clipPath
       clipPathUnits="userSpaceOnUse"
       id="clipPath3732"><path
         d="m 354.33,404.91 109.2,0 0,-9.24 -109.2,0 0,9.24 z"
         clip-rule="evenodd"
         id="path3734" /></clipPath><clipPath
       clipPathUnits="userSpaceOnUse"
       id="clipPath3784"><path
         d="m 400.29,402.39 63.24,0 0,-9.24 -63.24,0 0,9.24 z"
         clip-rule="evenodd"
         id="path3786" /></clipPath><clipPath
       clipPathUnits="userSpaceOnUse"
       id="clipPath3956"><path
         d="m 355.65,322.11 107.88,0 0,-10.92 -107.88,0 0,10.92 z"
         clip-rule="evenodd"
         id="path3958" /></clipPath><clipPath
       clipPathUnits="userSpaceOnUse"
       id="clipPath3968"><path
         d="m 364.17,451.23 99.36,0 0,-10.92 -99.36,0 0,10.92 z"
         clip-rule="evenodd"
         id="path3970" /></clipPath><clipPath
       clipPathUnits="userSpaceOnUse"
       id="clipPath4016"><path
         d="M 0,0 595,0 595,842 0,842 0,0 z"
         id="path4018" /></clipPath></defs><sodipodi:namedview
     pagecolor="#ffffff"
     bordercolor="#666666"
     borderopacity="1"
     objecttolerance="10"
     gridtolerance="10"
     guidetolerance="10"
     inkscape:pageopacity="0"
     inkscape:pageshadow="2"
     inkscape:window-width="1920"
     inkscape:window-height="1145"
     id="namedview3180"
     showgrid="false"
     inkscape:zoom="0.89691211"
     inkscape:cx="348.01944"
     inkscape:cy="419.33069"
     inkscape:window-x="-2"
     inkscape:window-y="-3"
     inkscape:window-maximized="1"
     inkscape:current-layer="g3186" /><g
     id="g3186"
     inkscape:groupmode="layer"
     inkscape:label="scholze2001"
     transform="matrix(1.25,0,0,-1.25,0,1052.5)"><path
       inkscape:connector-curvature="0"
       id="path3284"
       style="fill:#5f5f5f;fill-opacity:1;fill-rule:evenodd;stroke:none"
       d="m 333.09577,418.67212 22.66433,6.83305 1.83314,-7.33303 -22.83097,-6.83305 -1.6665,7.33303" /><path
       inkscape:connector-curvature="0"
       id="path3286"
       style="fill:none;stroke:#1b1b1b;stroke-width:0.18700001;stroke-linecap:square;stroke-linejoin:miter;stroke-miterlimit:10;stroke-opacity:1;stroke-dasharray:none"
       d="m 333.09578,418.67212 22.66433,6.83305 1.83314,-7.33303 -22.83097,-6.83305 -1.6665,7.33303 z" /><path
       inkscape:connector-curvature="0"
       id="path3808"
       style="fill:none;stroke:#262626;stroke-width:0.12;stroke-linecap:square;stroke-linejoin:miter;stroke-miterlimit:10;stroke-opacity:1;stroke-dasharray:none"
       d="m 276.10167,321.12063 0,0.99996 m 0,-0.16666 -73.65905,0" /><path
       inkscape:connector-curvature="0"
       id="path3810"
       style="fill:#141414;fill-opacity:1;fill-rule:evenodd;stroke:none"
       d="m 202.27596,326.12042 81.82488,0 -7.99918,-4.16649 -73.8257,0 0,4.16649" /><path
       inkscape:connector-curvature="0"
       id="path3812"
       style="fill:none;stroke:#262626;stroke-width:0.12;stroke-linecap:square;stroke-linejoin:miter;stroke-miterlimit:10;stroke-opacity:1;stroke-dasharray:none"
       d="m 202.27597,326.12042 81.99153,0 -8.16583,-4.16649 -73.8257,0 0,4.16649 m -52.16128,8.83296 -0.6666,-0.83329 -0.49995,-0.99996 -1.33319,-1.6666 -0.49995,-0.99996 -0.49995,-0.66664 0,-1.16661 0.3333,-1.16662 m 0,0 0.16665,-0.66664 0.49995,-0.16666 0.3333,-0.49998 0.49995,-0.49998 0.49994,-0.66664 0.49995,-0.16666 0.6666,-0.99996 m 0,-1.16661 -0.3333,-1.16662 -0.49995,-1.33328 -0.83324,-0.99996 -0.83325,-1.33328 -0.6666,-1.33327 -0.3333,-1.33328 0.3333,-1.49994 0.6666,-0.99996 m 7.83252,21.83243 -0.16665,-0.49998 -0.49995,-0.66664 -0.66659,-0.99996 -0.16665,-0.49998 -0.49995,-0.49998 -0.3333,-0.49998 -0.16665,-0.49998 m 0,0 -0.3333,-1.66659 0,-1.16662 0.49995,-1.16662 0.83325,-1.33328 1.49984,-2.99987 0,-1.33328 m 0,-0.99996 -0.49995,-1.33328 -0.16665,-0.99996 -0.66659,-1.16661 -0.16665,-0.66664 0,-1.83326 0.49995,-0.99996 0.99989,-1.33328 m 0,0 0,0.16666" /><path
       inkscape:connector-curvature="0"
       id="path3814"
       style="fill:#141414;fill-opacity:1;fill-rule:evenodd;stroke:none"
       d="m 201.77601,326.12042 -48.16169,-0.49998 1.16655,-2.66655 47.49509,-0.99996 -0.49995,4.16649" /><path
       inkscape:connector-curvature="0"
       id="path3816"
       style="fill:none;stroke:#262626;stroke-width:0.12;stroke-linecap:square;stroke-linejoin:miter;stroke-miterlimit:10;stroke-opacity:1;stroke-dasharray:none"
       d="m 201.94267,326.12042 -48.32834,-0.33332 1.33319,-2.4999 47.4951,-1.33327 -0.49995,4.16649" /><path
       inkscape:connector-curvature="0"
       id="path3818"
       style="fill:#141414;fill-opacity:1;fill-rule:evenodd;stroke:none"
       d="m 148.28154,325.62044 -39.49592,-1.16662 40.49582,-1.49993 -0.9999,2.66655" /><path
       inkscape:connector-curvature="0"
       id="path3820"
       style="fill:none;stroke:#262626;stroke-width:0.12;stroke-linecap:square;stroke-linejoin:miter;stroke-miterlimit:10;stroke-opacity:1;stroke-dasharray:none"
       d="m 148.28155,325.62044 -39.32927,-1.16662 40.49581,-1.16662 -1.16654,2.33324 m 0,0 0.16665,0 0.99989,-1.16662 0.6666,-0.49998 0,-0.66664 -0.6666,0 -1.16654,2.33324" /><path
       inkscape:connector-curvature="0"
       id="path3822"
       style="fill:#141414;fill-opacity:1;fill-rule:evenodd;stroke:none"
       d="m 153.61432,325.62044 -0.16665,0 1.3332,-2.66655 -1.16655,2.66655" /><path
       inkscape:connector-curvature="0"
       id="path3824"
       style="fill:none;stroke:#262626;stroke-width:0.12;stroke-linecap:square;stroke-linejoin:miter;stroke-miterlimit:10;stroke-opacity:1;stroke-dasharray:none"
       d="m 153.61433,325.7871 -0.16665,0 1.49984,-2.4999 -1.33319,2.4999" /><path
       inkscape:connector-curvature="0"
       id="path3826"
       style="fill:#dcdcdc;fill-opacity:1;fill-rule:evenodd;stroke:none"
       d="m 198.10972,328.12034 38.49602,0 0,-8.33299 -38.49602,0 0,8.33299 z" /><path
       inkscape:connector-curvature="0"
       id="path3828"
       style="fill:none;stroke:#1b1b1b;stroke-width:0.37400001;stroke-linecap:square;stroke-linejoin:miter;stroke-miterlimit:10;stroke-opacity:1;stroke-dasharray:none"
       d="m 198.10973,328.12034 38.49602,0 0,-8.33299 -38.49602,0 0,8.33299 z" /><path
       inkscape:connector-curvature="0"
       id="path3830"
       style="fill:none;stroke:#262626;stroke-width:0.12;stroke-linecap:square;stroke-linejoin:miter;stroke-miterlimit:10;stroke-opacity:1;stroke-dasharray:none"
       d="m 278.60141,323.45386 -0.16665,0 0,-0.49998 0.16665,0 0,-0.33331 0.3333,0 0,0.33331 0.16665,0 0,0.49998 -0.49995,0" /><path
       inkscape:connector-curvature="0"
       id="path3832"
       style="fill:#141414;fill-opacity:1;fill-rule:evenodd;stroke:none"
       d="m 353.92695,347.95285 -48.99493,0 18.83138,3.83317 30.9968,0 -0.83325,-3.83317" /><path
       inkscape:connector-curvature="0"
       id="path3834"
       style="fill:none;stroke:#262626;stroke-width:0.12;stroke-linecap:square;stroke-linejoin:miter;stroke-miterlimit:10;stroke-opacity:1;stroke-dasharray:none"
       d="m 353.92696,348.1195 -48.82828,0 18.66473,3.99984 31.16345,0 -0.9999,-3.99984" /><path
       inkscape:connector-curvature="0"
       id="path3836"
       style="fill:#141414;fill-opacity:1;fill-rule:evenodd;stroke:none"
       d="m 304.09877,348.1195 -29.16365,-26.16557 10.99886,3.33319 27.16386,25.49894 -8.99907,-2.66656" /><path
       inkscape:connector-curvature="0"
       id="path3838"
       style="fill:none;stroke:#262626;stroke-width:0.12;stroke-linecap:square;stroke-linejoin:miter;stroke-miterlimit:10;stroke-opacity:1;stroke-dasharray:none"
       d="m 304.26543,348.45282 -28.997,-26.33223 10.83221,3.16653 27.33051,25.49894 -9.16572,-2.33324" /><path
       inkscape:connector-curvature="0"
       id="path3840"
       style="fill:#dcdcdc;fill-opacity:1;fill-rule:evenodd;stroke:none"
       d="m 266.93594,319.12071 1.3332,-3.99983 26.16396,7.83301 -0.9999,4.16649 -26.49726,-7.99967" /><path
       inkscape:connector-curvature="0"
       id="path3842"
       style="fill:#141414;fill-opacity:1;fill-rule:nonzero;stroke:none"
       d="m 268.43579,315.12088 0.3333,0.33332 -1.3332,3.83317 -0.49995,0 1.3332,-4.16649 0.16665,0 -0.16665,0 0,-0.16666 0.16665,0.16666" /><path
       inkscape:connector-curvature="0"
       id="path3844"
       style="fill:#141414;fill-opacity:1;fill-rule:nonzero;stroke:none"
       d="m 294.7664,323.28721 -0.3333,0.16666 -26.16396,-7.83301 0.16665,-0.49998 25.99731,7.83301 0.3333,0.33332 -0.3333,-0.33332 0.3333,0 0,0.33332" /><path
       inkscape:connector-curvature="0"
       id="path3846"
       style="fill:#141414;fill-opacity:1;fill-rule:nonzero;stroke:none"
       d="m 293.09991,327.28704 0,-0.16666 1.16654,-4.16649 0.49995,0.33332 -0.9999,3.83317 -0.66659,0.16666 0.66659,-0.16666 -0.3333,0.16666 -0.33329,0" /><path
       inkscape:connector-curvature="0"
       id="path3848"
       style="fill:#141414;fill-opacity:1;fill-rule:nonzero;stroke:none"
       d="m 267.26924,319.12071 26.16396,7.66635 -0.33329,0.49998 -25.83067,-7.66635" /><path
       inkscape:connector-curvature="0"
       id="path3850"
       style="fill:none;stroke:#262626;stroke-width:0.12;stroke-linecap:square;stroke-linejoin:miter;stroke-miterlimit:10;stroke-opacity:1;stroke-dasharray:none"
       d="m 268.93575,333.12013 1.66649,1.99991 0.9999,0.8333 0.83324,0.8333 2.3331,0.99996 1.33319,0.16666 0.9999,0.33332 m 0,0 2.33309,0 0.6666,-0.33332 0.83325,0 0.49994,-0.16666 0.83325,-0.33332 0.83325,-0.16666" /><path
       inkscape:connector-curvature="0"
       id="path3852"
       style="fill:#141414;fill-opacity:1;fill-rule:evenodd;stroke:none"
       d="m 269.76898,334.95339 -1.49984,-2.83322 2.33309,1.99992 -0.83325,0.8333" /><path
       inkscape:connector-curvature="0"
       id="path3854"
       style="fill:none;stroke:#262626;stroke-width:0.12;stroke-linecap:square;stroke-linejoin:miter;stroke-miterlimit:10;stroke-opacity:1;stroke-dasharray:none"
       d="m 269.76899,335.12004 -1.33319,-2.99987 2.33309,2.33324 -0.9999,0.66663" /><path
       inkscape:connector-curvature="0"
       id="path3856"
       style="fill:#141414;fill-opacity:1;fill-rule:evenodd;stroke:none"
       d="m 281.2678,338.28658 2.83304,-1.49994 -3.33299,0.16666 0.49995,1.33328" /><path
       inkscape:connector-curvature="0"
       id="path3858"
       style="fill:none;stroke:#262626;stroke-width:0.12;stroke-linecap:square;stroke-linejoin:miter;stroke-miterlimit:10;stroke-opacity:1;stroke-dasharray:none"
       d="m 281.26781,338.6199 2.83304,-1.83326 -3.16634,0.49998 0.3333,1.33328 m 41.82901,4.33315 -1.6665,-1.99992 -0.99989,-0.83329 -1.9998,-0.99996 -1.16654,-0.49998 -1.16655,-0.33332 -1.3332,-0.33332 m 0,0 -2.33309,0 -0.49995,0.33332 -0.83324,0 -0.83325,0.33332 -0.49995,0.16666 -0.83325,0.49998" /><path
       inkscape:connector-curvature="0"
       id="path3860"
       style="fill:#141414;fill-opacity:1;fill-rule:evenodd;stroke:none"
       d="m 322.26356,340.95314 1.33319,2.99987 -2.66639,-2.33323 1.3332,-0.66664" /><path
       inkscape:connector-curvature="0"
       id="path3862"
       style="fill:none;stroke:#262626;stroke-width:0.12;stroke-linecap:square;stroke-linejoin:miter;stroke-miterlimit:10;stroke-opacity:1;stroke-dasharray:none"
       d="m 322.59687,340.95313 1.16654,2.99988 -2.49974,-2.33324 1.3332,-0.66664" /><path
       inkscape:connector-curvature="0"
       id="path3864"
       style="fill:#141414;fill-opacity:1;fill-rule:evenodd;stroke:none"
       d="m 310.5981,337.7866 -2.83304,1.99992 3.33299,-0.99996 -0.49995,-0.99996" /><path
       inkscape:connector-curvature="0"
       id="path3866"
       style="fill:none;stroke:#262626;stroke-width:0.12;stroke-linecap:square;stroke-linejoin:miter;stroke-miterlimit:10;stroke-opacity:1;stroke-dasharray:none"
       d="m 310.59811,337.7866 -2.66639,2.33324 3.16634,-0.99996 -0.49995,-1.33328" /><path
       inkscape:connector-curvature="0"
       id="path3868"
       style="fill:#585858;fill-opacity:1;fill-rule:nonzero;stroke:none"
       d="m 441.41791,370.28525 -1.66649,11.66618 -2.3331,0 1.9998,-11.66618" /><path
       inkscape:connector-curvature="0"
       id="path3870"
       style="fill:#585858;fill-opacity:1;fill-rule:nonzero;stroke:none"
       d="m 443.91765,355.61919 -1.66649,10.66622 -2.3331,0 1.83315,-10.66622" /><path
       inkscape:connector-curvature="0"
       id="path3872"
       style="fill:#141414;fill-opacity:1;fill-rule:nonzero;stroke:none"
       d="m 158.9471,326.6204 1.9998,0 0,11.33286 -1.9998,0 0,-11.33286 z" /><path
       inkscape:connector-curvature="0"
       id="path3874"
       style="fill:#141414;fill-opacity:1;fill-rule:nonzero;stroke:none"
       d="m 158.9471,310.95439 1.9998,0 0,10.49956 -1.9998,0 0,-10.49956 z" /><path
       inkscape:connector-curvature="0"
       id="path3876"
       style="fill:#707070;fill-opacity:1;fill-rule:nonzero;stroke:none"
       d="m 478.41409,378.61823 -1.83315,11.33287 -2.33309,-0.16666 1.99979,-11.49953" /><path
       inkscape:connector-curvature="0"
       id="path3878"
       style="fill:#707070;fill-opacity:1;fill-rule:nonzero;stroke:none"
       d="m 480.91383,364.2855 -1.6665,10.3329 -2.16644,-0.16666 1.83314,-10.49956" /><path
       inkscape:connector-curvature="0"
       id="path3880"
       style="fill:#1b1b1b;fill-opacity:1;fill-rule:evenodd;stroke:none"
       d="m 442.58446,369.28529 -0.83325,-0.33332 -0.49995,0 0.83325,0 41.16241,6.99971 -0.49995,2.66655 -0.6666,0 -38.49602,-9.16628 -0.49995,-0.16666 -0.49994,0" /><path
       inkscape:connector-curvature="0"
       id="path3882"
       style="fill:none;stroke:#1b1b1b;stroke-width:0.18700001;stroke-linecap:square;stroke-linejoin:miter;stroke-miterlimit:10;stroke-opacity:1;stroke-dasharray:none"
       d="m 442.58447,369.28529 -0.83325,-0.33332 -0.49994,0 0.83324,0 41.16242,6.99971 -0.49995,2.66655 -0.6666,0 -38.49602,-9.16628 -0.49995,-0.16666 -0.49995,0" /><path
       inkscape:connector-curvature="0"
       id="path3884"
       style="fill:#1b1b1b;fill-opacity:1;fill-rule:evenodd;stroke:none"
       d="m 438.08492,368.45199 1.83314,0.16666 1.83315,0.33332 -0.9999,-0.33332 -0.99989,-0.16666 -95.15684,-20.99912 0,3.83317 1.3332,0 0.49995,0.33332 89.6574,16.33265 0.99989,0.16666 0.9999,0.33332" /><path
       inkscape:connector-curvature="0"
       id="path3886"
       style="fill:none;stroke:#1b1b1b;stroke-width:0.18700001;stroke-linecap:square;stroke-linejoin:miter;stroke-miterlimit:10;stroke-opacity:1;stroke-dasharray:none"
       d="m 438.08494,368.45199 1.83314,0.16666 1.83314,0.33332 -0.99989,-0.33332 -0.9999,-0.16666 -95.15683,-20.99913 0,3.83318 1.33319,0 0.49995,0.33332 89.6574,16.33265 0.9999,0.16666 0.9999,0.33332" /><path
       inkscape:connector-curvature="0"
       id="path3888"
       style="fill:#5f5f5f;fill-opacity:1;fill-rule:evenodd;stroke:none"
       d="m 336.26211,347.95285 31.49675,3.83317 0.99989,-5.66643 -31.49674,-3.99984 -0.9999,5.8331" /><path
       inkscape:connector-curvature="0"
       id="path3890"
       style="fill:none;stroke:#1b1b1b;stroke-width:0.18700001;stroke-linecap:square;stroke-linejoin:miter;stroke-miterlimit:10;stroke-opacity:1;stroke-dasharray:none"
       d="m 336.26212,347.95284 31.49675,3.83318 0.9999,-5.66643 -31.49675,-3.99984 -0.9999,5.83309 z" /><path
       inkscape:connector-curvature="0"
       id="path3892"
       style="fill:#5f5f5f;fill-opacity:1;fill-rule:nonzero;stroke:none"
       d="m 462.58239,356.28583 -5.83273,32.33199 -1.9998,-0.16666 5.66609,-32.83197" /><path
       inkscape:connector-curvature="0"
       id="path3894"
       style="fill:#707070;fill-opacity:1;fill-rule:evenodd;stroke:none"
       d="m 297.59944,353.28596 28.83035,4.66647 0.83325,-5.83309 -28.6637,-4.66647 -0.9999,5.83309" /><path
       inkscape:connector-curvature="0"
       id="path3896"
       style="fill:none;stroke:#1b1b1b;stroke-width:0.18700001;stroke-linecap:square;stroke-linejoin:miter;stroke-miterlimit:10;stroke-opacity:1;stroke-dasharray:none"
       d="m 297.59945,353.28595 28.83036,4.66648 0.83324,-5.83309 -28.6637,-4.66648 -0.9999,5.83309 z m 152.6509,220.49081 0,0 z" /><path
       inkscape:connector-curvature="0"
       id="path3898"
       style="fill:#d0d0d0;fill-opacity:1;fill-rule:evenodd;stroke:none"
       d="m 268.93574,398.17297 22.66432,6.66639 1.83314,-6.9997 -22.83097,-6.66639 -1.66649,6.9997" /><path
       inkscape:connector-curvature="0"
       id="path3900"
       style="fill:none;stroke:#1b1b1b;stroke-width:0.18700001;stroke-linecap:square;stroke-linejoin:miter;stroke-miterlimit:10;stroke-opacity:1;stroke-dasharray:none"
       d="m 268.93575,398.17297 22.66432,6.66639 1.83315,-6.99971 -22.83098,-6.66639 -1.66649,6.99971 z" /><path
       inkscape:connector-curvature="0"
       id="path3902"
       style="fill:none;stroke:#262626;stroke-width:0.12;stroke-linecap:square;stroke-linejoin:miter;stroke-miterlimit:10;stroke-opacity:1;stroke-dasharray:none"
       d="m 150.28134,388.34005 -0.49995,-0.8333 -0.49995,-0.99996 -0.83324,-0.8333 -0.49995,-0.8333 -0.49995,-0.66663 -0.49995,-1.16662 0,-0.99996 0.16665,-1.33328 m 0,0 0.3333,-0.16666 0.49995,-0.49998 0.3333,-0.49998 0.66659,-0.33332 0.3333,-0.49998 0.49995,-0.49997 0.3333,-0.49998 0.16665,-0.49998 m 0,0 -0.16665,-1.33328 -0.6666,-1.33328 -0.6666,-0.99996 -1.66649,-2.66655 -0.16665,-1.33328 0.16665,-1.16662 0.83325,-1.33328 m 7.83252,20.83247 -0.3333,-0.66664 -0.49995,-0.49998 -0.16665,-0.49998 -0.66659,-0.99996 -0.49995,-0.49998 -0.16665,-0.49997 -0.3333,-0.49998 m 0,0 -0.16665,-1.6666 0,-1.33328 1.16655,-2.33323 0.66659,-0.99996 0.9999,-1.99992 0,-1.33328 m 43.16221,4.33316 -0.6666,-1.16662 -0.16665,-1.16662 -0.49995,-0.99996 -0.3333,-0.8333 0,-0.66664 0.3333,-0.99996 0.49995,-1.16661 0.9999,-1.16662 m 0,0 0,0.16666 -0.16665,0" /><path
       inkscape:connector-curvature="0"
       id="path3904"
       style="fill:#141414;fill-opacity:1;fill-rule:evenodd;stroke:none"
       d="m 201.94266,379.50709 -47.99504,-0.49998 1.3332,-2.4999 47.16179,-1.16662 -0.49995,4.1665" /><path
       inkscape:connector-curvature="0"
       id="path3906"
       style="fill:none;stroke:#262626;stroke-width:0.12;stroke-linecap:square;stroke-linejoin:miter;stroke-miterlimit:10;stroke-opacity:1;stroke-dasharray:none"
       d="m 202.27597,379.50708 -48.32834,-0.33332 1.33319,-2.49989 47.4951,-1.33328 -0.49995,4.16649" /><path
       inkscape:connector-curvature="0"
       id="path3908"
       style="fill:#141414;fill-opacity:1;fill-rule:evenodd;stroke:none"
       d="m 148.44819,378.67379 -39.49592,-0.8333 40.82912,-1.33328 -1.3332,2.16658" /><path
       inkscape:connector-curvature="0"
       id="path3910"
       style="fill:none;stroke:#262626;stroke-width:0.12;stroke-linecap:square;stroke-linejoin:miter;stroke-miterlimit:10;stroke-opacity:1;stroke-dasharray:none"
       d="m 148.4482,379.0071 -39.16262,-1.16661 40.49581,-1.16662 -1.33319,2.33323 m 0,0 0.49994,0 0.83325,-0.83329 0.49995,-0.8333 0,-0.66664 -0.49995,0.16666 -1.33319,2.16657" /><path
       inkscape:connector-curvature="0"
       id="path3912"
       style="fill:#141414;fill-opacity:1;fill-rule:evenodd;stroke:none"
       d="m 153.94762,379.00711 -0.3333,0 1.6665,-2.4999 -1.3332,2.4999" /><path
       inkscape:connector-curvature="0"
       id="path3914"
       style="fill:none;stroke:#262626;stroke-width:0.12;stroke-linecap:square;stroke-linejoin:miter;stroke-miterlimit:10;stroke-opacity:1;stroke-dasharray:none"
       d="m 153.94763,379.17376 -0.3333,0 1.66649,-2.49989 0,0.16666 -1.33319,2.33323" /><path
       inkscape:connector-curvature="0"
       id="path3916"
       style="fill:#141414;fill-opacity:1;fill-rule:evenodd;stroke:none"
       d="m 201.77601,379.17377 29.3303,0.99995 -28.6637,-5.16645 -0.6666,4.1665" /><path
       inkscape:connector-curvature="0"
       id="path3918"
       style="fill:none;stroke:#262626;stroke-width:0.12;stroke-linecap:square;stroke-linejoin:miter;stroke-miterlimit:10;stroke-opacity:1;stroke-dasharray:none"
       d="m 201.94267,379.50708 29.3303,0.99996 -28.83035,-5.16645 -0.49995,4.16649 m 21.33113,2.99988 -0.9999,1.6666 -2.66639,1.99991 -1.49985,0.8333 -1.49984,0.16666 -1.66649,0.33332 -1.83315,-0.33332 -1.49984,-0.49998 m 0,0 -1.83315,-0.99996 -1.49984,-1.33328 -1.16655,-1.33327 -0.9999,-1.6666 -0.49994,-1.83326 -0.16665,-1.83325 0.16665,-2.16658 0.49994,-1.83326" /><path
       inkscape:connector-curvature="0"
       id="path3924"
       style="fill:#141414;fill-opacity:1;fill-rule:nonzero;stroke:none"
       d="m 159.11375,380.50704 2.16645,0 0,11.66618 -2.16645,0 0,-11.66618 z" /><path
       inkscape:connector-curvature="0"
       id="path3926"
       style="fill:#141414;fill-opacity:1;fill-rule:nonzero;stroke:none"
       d="m 159.11375,366.00765 2.16645,0 0,10.49956 -2.16645,0 0,-10.49956 z" /><path
       inkscape:connector-curvature="0"
       id="path3930"
       style="fill:#1b1b1b;fill-opacity:1;fill-rule:evenodd;stroke:none"
       d="m 213.94142,374.17397 3.66629,1.6666 256.64014,83.82984 -259.30653,-80.49664 -0.9999,-0.16666 -0.9999,-0.33332 0.9999,-4.49982" /><path
       inkscape:connector-curvature="0"
       id="path3932"
       style="fill:none;stroke:#1b1b1b;stroke-width:0.18700001;stroke-linecap:square;stroke-linejoin:miter;stroke-miterlimit:10;stroke-opacity:1;stroke-dasharray:none"
       d="m 213.94143,374.17397 3.66629,1.6666 256.64015,83.82984 -259.30654,-80.49665 -0.9999,-0.16666 -0.9999,-0.33332 0.9999,-4.49981" /><path
       inkscape:connector-curvature="0"
       id="path3934"
       style="fill:#707070;fill-opacity:1;fill-rule:evenodd;stroke:none"
       d="m 300.76578,408.50588 22.83097,6.83305 1.83315,-6.99971 -22.83098,-6.83305 -1.83314,6.99971" /><path
       inkscape:connector-curvature="0"
       id="path3936"
       style="fill:none;stroke:#1b1b1b;stroke-width:0.18700001;stroke-linecap:square;stroke-linejoin:miter;stroke-miterlimit:10;stroke-opacity:1;stroke-dasharray:none"
       d="m 300.76579,408.50587 22.83098,6.83305 1.83314,-6.99971 -22.83098,-6.83304 -1.83314,6.9997 z" /><path
       inkscape:connector-curvature="0"
       id="path3938"
       style="fill:#d0d0d0;fill-opacity:1;fill-rule:evenodd;stroke:none"
       d="m 197.77642,375.34059 36.49623,6.16641 1.6665,-6.66639 -35.99628,-6.33307 -2.16645,6.83305" /><path
       inkscape:connector-curvature="0"
       id="path3940"
       style="fill:none;stroke:#1b1b1b;stroke-width:0.18700001;stroke-linecap:square;stroke-linejoin:miter;stroke-miterlimit:10;stroke-opacity:1;stroke-dasharray:none"
       d="m 197.77643,375.34059 36.49623,6.16641 1.6665,-6.66639 -35.99629,-6.33307 -2.16644,6.83305 z" /><path
       inkscape:connector-curvature="0"
       id="path3942"
       style="fill:#585858;fill-opacity:1;fill-rule:nonzero;stroke:none"
       d="m 439.91806,449.83749 -3.33298,11.66618 -2.16645,-0.16666 3.49964,-11.66618" /><path
       inkscape:connector-curvature="0"
       id="path3944"
       style="fill:#585858;fill-opacity:1;fill-rule:nonzero;stroke:none"
       d="m 444.4176,435.50475 -3.16634,10.49957 -2.16644,-0.33332 3.16634,-10.33291" /><path
       inkscape:connector-curvature="0"
       id="path3946"
       style="fill:#707070;fill-opacity:1;fill-rule:nonzero;stroke:none"
       d="m 473.4146,461.83699 -2.99969,11.49952 -2.16644,-0.66664 3.16634,-11.1662" /><path
       inkscape:connector-curvature="0"
       id="path3948"
       style="fill:#707070;fill-opacity:1;fill-rule:nonzero;stroke:none"
       d="m 477.41419,447.83757 -2.99969,10.16625 -1.99979,-0.66664 2.83304,-9.99959" /><path
       inkscape:connector-curvature="0"
       id="path3950"
       style="fill:#5f5f5f;fill-opacity:1;fill-rule:nonzero;stroke:none"
       d="m 462.08244,438.50463 -9.33237,32.6653 -2.16644,-0.49998 9.33237,-32.83196" /><path
       inkscape:connector-curvature="0"
       id="path3982"
       style="fill:none;stroke:#262626;stroke-width:0.12;stroke-linecap:square;stroke-linejoin:miter;stroke-miterlimit:10;stroke-opacity:1;stroke-dasharray:none"
       d="m 363.09268,356.95247 -1.16654,1.66659 -1.16655,0.99996 -1.33319,0.99996 -1.49985,0.8333 -1.66649,0.16666 -1.49985,0.33332 -1.83314,-0.33332 -1.49985,-0.49998" /><path
       inkscape:connector-curvature="0"
       id="path3988"
       style="fill:none;stroke:#262626;stroke-width:0.12;stroke-linecap:square;stroke-linejoin:miter;stroke-miterlimit:10;stroke-opacity:1;stroke-dasharray:none"
       d="m 351.09392,361.95226 -1.83314,-0.99996 -1.49984,-1.33328 -1.16655,-1.49993 -0.9999,-1.6666 -0.49995,-1.83326 -0.16665,-1.99992 0.16665,-1.83325 0.49995,-2.16658" /><text
       style="font-size:16.63630676px"
       y="-390.21652"
       x="201.58621"
       transform="scale(0.99821998,-1.0017832)"
       id="text6168"><tspan
         y="-390.21652"
         x="201.58621"
         style="font-size:12.96980381px;font-variant:normal;font-weight:normal;writing-mode:lr-tb;fill:#1b1b1b;fill-opacity:1;fill-rule:nonzero;stroke:none;font-family:Helvetica;-inkscape-font-specification:Helvetica"
         sodipodi:role="line"
         id="tspan6170">$178^\circ$</tspan></text>
<text
       xml:space="preserve"
       style="font-size:7.65233517px;font-style:normal;font-variant:normal;font-weight:normal;font-stretch:normal;text-align:start;line-height:125%;letter-spacing:0px;word-spacing:0px;writing-mode:lr-tb;text-anchor:start;fill:#000000;fill-opacity:1;fill-rule:evenodd;stroke:none;font-family:Sans;-inkscape-font-specification:Sans"
       x="186.98026"
       y="-305.78384"
       id="text88149"
       sodipodi:linespacing="125%"
       transform="scale(0.99877211,-1.0012294)"><tspan
         sodipodi:role="line"
         x="186.98026"
         y="-305.78384"
         id="tspan88151">{\fontfamily{fds}</tspan><tspan
         sodipodi:role="line"
         x="186.98026"
         y="-296.21841"
         id="tspan88153">\selectfont</tspan><tspan
         sodipodi:role="line"
         x="186.98026"
         y="-286.65302"
         id="tspan88155">\footnotesize</tspan><tspan
         sodipodi:role="line"
         x="186.98026"
         y="-277.08759"
         id="tspan88157">toroidal mirror}</tspan></text>
<text
       transform="scale(0.99877211,-1.0012294)"
       sodipodi:linespacing="125%"
       id="text6544"
       y="-302.14236"
       x="275.99487"
       style="font-size:7.65233517px;font-style:normal;font-variant:normal;font-weight:normal;font-stretch:normal;text-align:start;line-height:125%;letter-spacing:0px;word-spacing:0px;writing-mode:lr-tb;text-anchor:start;fill:#000000;fill-opacity:1;fill-rule:evenodd;stroke:none;font-family:Sans;-inkscape-font-specification:Sans"
       xml:space="preserve"><tspan
         id="tspan6546"
         y="-302.14236"
         x="275.99487"
         sodipodi:role="line">{\fontfamily{fds}</tspan><tspan
         id="tspan6548"
         y="-292.57693"
         x="275.99487"
         sodipodi:role="line">\selectfont</tspan><tspan
         id="tspan6550"
         y="-283.01154"
         x="275.99487"
         sodipodi:role="line">\footnotesize</tspan><tspan
         id="tspan6552"
         y="-273.44611"
         x="275.99487"
         sodipodi:role="line">plane mirror}</tspan></text>
<text
       xml:space="preserve"
       style="font-size:7.65233517px;font-style:normal;font-variant:normal;font-weight:normal;font-stretch:normal;text-align:start;line-height:125%;letter-spacing:0px;word-spacing:0px;writing-mode:lr-tb;text-anchor:start;fill:#000000;fill-opacity:1;fill-rule:evenodd;stroke:none;font-family:Sans;-inkscape-font-specification:Sans"
       x="279.38751"
       y="-364.54797"
       id="text6554"
       sodipodi:linespacing="125%"
       transform="scale(0.99877211,-1.0012294)"><tspan
         sodipodi:role="line"
         x="279.38751"
         y="-364.54797"
         id="tspan6556">{\fontfamily{fds}</tspan><tspan
         sodipodi:role="line"
         x="279.38751"
         y="-354.98254"
         id="tspan6558">\selectfont</tspan><tspan
         sodipodi:role="line"
         x="279.38751"
         y="-345.41714"
         id="tspan6560">\footnotesize</tspan><tspan
         sodipodi:role="line"
         x="279.38751"
         y="-335.85172"
         id="tspan6562">plane grating}</tspan></text>
<text
       transform="scale(0.99877211,-1.0012294)"
       sodipodi:linespacing="125%"
       id="text6564"
       y="-331.09512"
       x="340.74069"
       style="font-size:7.65233517px;font-style:normal;font-variant:normal;font-weight:normal;font-stretch:normal;text-align:start;line-height:125%;letter-spacing:0px;word-spacing:0px;writing-mode:lr-tb;text-anchor:start;fill:#000000;fill-opacity:1;fill-rule:evenodd;stroke:none;font-family:Sans;-inkscape-font-specification:Sans"
       xml:space="preserve"><tspan
         id="tspan6566"
         y="-331.09512"
         x="340.74069"
         sodipodi:role="line">{\fontfamily{fds}</tspan><tspan
         id="tspan6568"
         y="-321.52969"
         x="340.74069"
         sodipodi:role="line">\selectfont</tspan><tspan
         id="tspan6570"
         y="-311.96429"
         x="340.74069"
         sodipodi:role="line">\footnotesize</tspan><tspan
         id="tspan6572"
         y="-302.39886"
         x="340.74069"
         sodipodi:role="line">focussing mirror}</tspan></text>
<text
       xml:space="preserve"
       style="font-size:7.65233517px;font-style:normal;font-variant:normal;font-weight:normal;font-stretch:normal;text-align:start;line-height:125%;letter-spacing:0px;word-spacing:0px;writing-mode:lr-tb;text-anchor:start;fill:#000000;fill-opacity:1;fill-rule:evenodd;stroke:none;font-family:Sans;-inkscape-font-specification:Sans"
       x="438.03201"
       y="-395.7601"
       id="text6574"
       sodipodi:linespacing="125%"
       transform="scale(0.99877211,-1.0012294)"><tspan
         sodipodi:role="line"
         x="438.03201"
         y="-395.7601"
         id="tspan6576">{\fontfamily{fds}</tspan><tspan
         sodipodi:role="line"
         x="438.03201"
         y="-386.19467"
         id="tspan6578">\selectfont</tspan><tspan
         sodipodi:role="line"
         x="438.03201"
         y="-376.62927"
         id="tspan6580">\footnotesize</tspan><tspan
         sodipodi:role="line"
         x="438.03201"
         y="-367.06384"
         id="tspan6582">filter}</tspan></text>
<text
       transform="scale(0.99877211,-1.0012294)"
       sodipodi:linespacing="125%"
       id="text6584"
       y="-352.99911"
       x="468.55209"
       style="font-size:7.65233517px;font-style:normal;font-variant:normal;font-weight:normal;font-stretch:normal;text-align:start;line-height:125%;letter-spacing:0px;word-spacing:0px;writing-mode:lr-tb;text-anchor:start;fill:#000000;fill-opacity:1;fill-rule:evenodd;stroke:none;font-family:Sans;-inkscape-font-specification:Sans"
       xml:space="preserve"><tspan
         id="tspan6586"
         y="-352.99911"
         x="468.55209"
         sodipodi:role="line">{\fontfamily{fds}</tspan><tspan
         id="tspan6588"
         y="-343.43369"
         x="468.55209"
         sodipodi:role="line">\selectfont</tspan><tspan
         id="tspan6590"
         y="-333.86829"
         x="468.55209"
         sodipodi:role="line">\footnotesize</tspan><tspan
         id="tspan6592"
         y="-324.30286"
         x="468.55209"
         sodipodi:role="line">entrance aperture}</tspan></text>
<text
       transform="scale(0.99877211,-1.0012294)"
       sodipodi:linespacing="125%"
       id="text6594"
       y="-353.52258"
       x="136.23323"
       style="font-size:7.65233517px;font-style:normal;font-variant:normal;font-weight:normal;font-stretch:normal;text-align:start;line-height:125%;letter-spacing:0px;word-spacing:0px;writing-mode:lr-tb;text-anchor:start;fill:#000000;fill-opacity:1;fill-rule:evenodd;stroke:none;font-family:Sans;-inkscape-font-specification:Sans"
       xml:space="preserve"><tspan
         id="tspan6596"
         y="-353.52258"
         x="136.23323"
         sodipodi:role="line">{\fontfamily{fds}</tspan><tspan
         id="tspan6598"
         y="-343.95715"
         x="136.23323"
         sodipodi:role="line">\selectfont</tspan><tspan
         id="tspan6600"
         y="-334.39175"
         x="136.23323"
         sodipodi:role="line">\footnotesize</tspan><tspan
         id="tspan6602"
         y="-324.82632"
         x="136.23323"
         sodipodi:role="line">cooled}</tspan></text>
<text
       xml:space="preserve"
       style="font-size:7.65233517px;font-style:normal;font-variant:normal;font-weight:normal;font-stretch:normal;text-align:start;line-height:125%;letter-spacing:0px;word-spacing:0px;writing-mode:lr-tb;text-anchor:start;fill:#000000;fill-opacity:1;fill-rule:evenodd;stroke:none;font-family:Sans;-inkscape-font-specification:Sans"
       x="77.738739"
       y="-353.81189"
       id="text6604"
       sodipodi:linespacing="125%"
       transform="scale(0.99877211,-1.0012294)"><tspan
         sodipodi:role="line"
         x="77.738739"
         y="-353.81189"
         id="tspan6606">{\fontfamily{fds}</tspan><tspan
         sodipodi:role="line"
         x="77.738739"
         y="-344.24646"
         id="tspan6608">\selectfont</tspan><tspan
         sodipodi:role="line"
         x="77.738739"
         y="-334.68106"
         id="tspan6610">\footnotesize</tspan><tspan
         sodipodi:role="line"
         x="77.738739"
         y="-325.11563"
         id="tspan6612">bending}</tspan></text>
<text
       transform="scale(0.99877211,-1.0012294)"
       sodipodi:linespacing="125%"
       id="text36607"
       y="-341.02771"
       x="77.738739"
       style="font-size:7.65233517px;font-style:normal;font-variant:normal;font-weight:normal;font-stretch:normal;text-align:start;line-height:125%;letter-spacing:0px;word-spacing:0px;writing-mode:lr-tb;text-anchor:start;fill:#000000;fill-opacity:1;fill-rule:evenodd;stroke:none;font-family:Sans;-inkscape-font-specification:Sans"
       xml:space="preserve"><tspan
         id="tspan36609"
         y="-341.02771"
         x="77.738739"
         sodipodi:role="line">{\fontfamily{fds}</tspan><tspan
         id="tspan36611"
         y="-331.46228"
         x="77.738739"
         sodipodi:role="line">\selectfont</tspan><tspan
         id="tspan36613"
         y="-321.89688"
         x="77.738739"
         sodipodi:role="line">\footnotesize</tspan><tspan
         id="tspan36615"
         y="-312.33145"
         x="77.738739"
         sodipodi:role="line">magnet}</tspan></text>
<text
       xml:space="preserve"
       style="font-size:7.65233517px;font-style:normal;font-variant:normal;font-weight:normal;font-stretch:normal;text-align:start;line-height:125%;letter-spacing:0px;word-spacing:0px;writing-mode:lr-tb;text-anchor:start;fill:#000000;fill-opacity:1;fill-rule:evenodd;stroke:none;font-family:Sans;-inkscape-font-specification:Sans"
       x="136.23323"
       y="-340.7384"
       id="text36617"
       sodipodi:linespacing="125%"
       transform="scale(0.99877211,-1.0012294)"><tspan
         sodipodi:role="line"
         x="136.23323"
         y="-340.7384"
         id="tspan36619">{\fontfamily{fds}</tspan><tspan
         sodipodi:role="line"
         x="136.23323"
         y="-331.17297"
         id="tspan36621">\selectfont</tspan><tspan
         sodipodi:role="line"
         x="136.23323"
         y="-321.60757"
         id="tspan36623">\footnotesize</tspan><tspan
         sodipodi:role="line"
         x="136.23323"
         y="-312.04214"
         id="tspan36625">apertures}</tspan></text>
<text
       transform="scale(0.99877211,-1.0012294)"
       sodipodi:linespacing="125%"
       id="text36627"
       y="-344.62338"
       x="430.02222"
       style="font-size:7.65233517px;font-style:normal;font-variant:normal;font-weight:normal;font-stretch:normal;text-align:start;line-height:125%;letter-spacing:0px;word-spacing:0px;writing-mode:lr-tb;text-anchor:start;fill:#000000;fill-opacity:1;fill-rule:evenodd;stroke:none;font-family:Sans;-inkscape-font-specification:Sans"
       xml:space="preserve"><tspan
         id="tspan36629"
         y="-344.62338"
         x="430.02222"
         sodipodi:role="line">{\fontfamily{fds}</tspan><tspan
         id="tspan36631"
         y="-335.05795"
         x="430.02222"
         sodipodi:role="line">\selectfont</tspan><tspan
         id="tspan36633"
         y="-325.49255"
         x="430.02222"
         sodipodi:role="line">\footnotesize</tspan><tspan
         id="tspan36635"
         y="-315.92712"
         x="430.02222"
         sodipodi:role="line">exit slit}</tspan></text>
</g></svg>